<svg version="1.1" id="Layer_1" xmlns="http://www.w3.org/2000/svg" xmlns:xlink="http://www.w3.org/1999/xlink" x="0px" y="0px"
	 width="100%" viewBox="0 0 1024 1024" enable-background="new 0 0 1024 1024" xml:space="preserve">
<path fill="#FCFDFD" opacity="1.000000" stroke="none" 
	d="
M475.000000,1025.000000 
	C316.666656,1025.000000 158.833328,1025.000000 1.000000,1025.000000 
	C1.000000,683.666687 1.000000,342.333344 1.000000,1.000000 
	C342.333344,1.000000 683.666687,1.000000 1025.000000,1.000000 
	C1025.000000,342.333344 1025.000000,683.666687 1025.000000,1025.000000 
	C841.833313,1025.000000 658.666687,1025.000000 475.000000,1025.000000 
M403.198395,686.947083 
	C405.263489,686.857910 407.328613,686.768738 410.406219,686.708313 
	C421.925079,686.574951 433.443970,686.441589 445.866058,686.565552 
	C449.884155,686.469849 453.902283,686.374146 458.797821,686.622681 
	C463.190216,686.508240 467.582611,686.393860 472.857117,686.608459 
	C489.566650,686.513977 506.276184,686.419495 523.857239,686.639526 
	C527.553040,686.555115 531.248901,686.470764 535.814758,686.698730 
	C540.874756,686.538635 545.934692,686.378540 551.692322,686.629272 
	C560.138977,686.481445 568.585693,686.333618 577.880615,686.301758 
	C591.948608,686.333374 606.016663,686.364990 620.947815,686.637756 
	C626.963196,687.327332 632.559021,687.101379 635.668213,679.826599 
	C643.631714,668.907288 651.595276,657.987976 660.143555,646.844299 
	C669.742126,633.852600 679.340759,620.860901 689.541809,607.053833 
	C686.386902,606.781860 684.594055,606.473816 682.806213,606.500183 
	C675.653015,606.605591 668.502075,606.922302 661.349060,606.965088 
	C641.547485,607.083557 621.745300,607.105713 601.943359,607.162354 
	C588.294983,607.201355 574.646667,607.234436 560.193359,607.100952 
	C559.108826,607.179626 558.024231,607.258301 556.128418,607.227600 
	C554.048645,607.485718 551.964355,607.994324 549.890015,607.956299 
	C542.897766,607.828247 535.908997,607.505798 528.009216,607.101929 
	C523.043396,607.122131 518.077576,607.142395 512.190063,607.037598 
	C509.715454,607.036743 507.240875,607.035889 504.780182,606.295593 
	C506.345703,604.017822 507.842865,601.689331 509.487671,599.470337 
	C520.715881,584.322144 531.975098,569.197021 543.778870,553.726807 
	C547.493408,548.807068 551.207947,543.887329 555.489563,538.611877 
	C559.213440,533.744995 562.937317,528.878113 567.241150,523.753174 
	C569.173218,522.867798 571.101013,521.972900 573.038086,521.098572 
	C582.019836,517.044067 591.004089,512.995239 600.724854,509.025757 
	C612.455750,502.850250 624.409668,497.056122 635.841980,490.370056 
	C643.966980,485.618225 651.388733,479.663910 659.795959,474.070709 
	C667.024841,467.554169 674.923950,461.624420 681.290100,454.352661 
	C687.404236,447.368866 691.930298,438.994720 697.785583,430.921722 
	C698.230896,429.617340 698.676208,428.312958 699.251648,426.705261 
	C699.251648,426.705261 699.239014,426.375427 699.668335,426.021240 
	C699.786194,425.677551 699.904053,425.333862 700.151428,424.651062 
	C700.151428,424.651062 700.174011,424.288757 700.799988,423.957916 
	C705.858826,412.496857 709.107239,400.744385 707.116516,387.214661 
	C704.809631,393.916565 703.183899,399.853851 700.718262,405.419006 
	C698.739441,409.885315 695.742310,413.900482 692.642639,418.487488 
	C686.886169,424.237732 681.561584,430.522217 675.268799,435.609131 
	C666.508911,442.690460 657.024109,448.875122 647.129700,455.652130 
	C640.762207,459.188354 634.394714,462.724609 627.312439,466.226318 
	C619.483948,469.682739 611.655396,473.139130 604.059631,475.973175 
	C607.115784,471.707397 610.171936,467.441650 613.818787,462.864197 
	C614.824097,461.550842 615.823364,460.232788 616.835693,458.924896 
	C625.228088,448.082184 633.622986,437.241364 642.704590,426.131531 
	C652.880676,419.217621 663.056824,412.303680 673.910828,405.181488 
	C674.622192,404.306946 675.333496,403.432404 676.292908,402.427246 
	C676.446899,402.316284 676.570923,402.178375 677.380676,402.052521 
	C677.929565,401.609955 678.478394,401.167389 679.635254,400.528564 
	C686.761963,394.018738 693.888672,387.508911 701.607117,380.696625 
	C703.851013,378.176544 706.094849,375.656433 708.907288,372.803650 
	C710.962158,370.239136 713.017029,367.674652 715.744690,364.994598 
	C718.392029,362.578400 721.039429,360.162201 723.922302,357.531036 
	C728.351990,362.285370 732.619568,366.865692 737.881958,372.513763 
	C738.610107,366.518219 739.125305,362.276245 739.921570,357.302063 
	C740.169678,355.510681 740.417786,353.719299 741.284302,351.436920 
	C745.175720,330.176270 749.067139,308.915649 753.107666,286.840302 
	C750.211365,287.280670 748.278259,287.427460 746.419556,287.879974 
	C727.235962,292.549805 708.061584,297.257263 688.891602,301.982635 
	C684.159363,303.149139 679.452393,304.418091 673.979797,305.745148 
	C672.428406,306.031006 670.877014,306.316864 668.027100,306.841949 
	C673.501587,311.872284 678.137573,316.132202 682.967407,320.570190 
	C678.785583,324.542816 674.865051,328.267273 670.344421,332.270538 
	C667.449890,334.816193 664.555359,337.361847 660.771606,340.016632 
	C644.181091,340.147522 627.590637,340.278412 610.216675,340.235535 
	C607.817261,340.207825 605.417786,340.180115 602.468750,340.044678 
	C602.291443,340.101990 602.114197,340.159302 601.032715,340.076843 
	C597.357178,340.150391 593.681580,340.223969 589.091553,340.099152 
	C584.108398,340.220490 579.125183,340.341858 573.224609,340.188202 
	C554.594238,340.213470 535.963928,340.230286 517.333557,340.266541 
	C500.545380,340.299194 483.757263,340.353088 466.054199,340.211334 
	C460.705475,340.281433 455.356750,340.351501 449.088501,340.217255 
	C441.718994,340.272308 434.349518,340.327332 426.283508,340.207581 
	C425.412109,340.562012 424.200653,340.663147 423.719910,341.308563 
	C415.412872,352.460083 407.195801,363.678650 398.381165,375.248352 
	C388.230865,389.183746 378.080597,403.119141 367.450012,417.289185 
	C367.630432,417.738892 367.810883,418.188599 368.917175,418.793549 
	C392.273773,418.749786 415.630371,418.706024 439.909302,418.846985 
	C454.332642,418.775269 468.755981,418.703552 484.050720,418.801117 
	C495.000397,418.751160 505.950043,418.701233 517.820679,418.815765 
	C522.560486,418.739014 527.300293,418.662262 532.936401,418.762787 
	C536.317566,418.834198 539.698730,418.905609 543.055481,419.480469 
	C543.048096,419.648346 543.040649,419.816193 542.454346,420.327728 
	C539.955688,423.884216 537.457031,427.440674 534.502319,431.175720 
	C534.301025,431.607025 534.099731,432.038330 533.302307,432.858398 
	C525.767761,443.002716 518.233154,453.147003 510.145630,463.722351 
	C507.386047,467.495850 504.626465,471.269348 501.336304,475.312988 
	C500.905548,475.967712 500.474823,476.622437 499.386353,477.445160 
	C498.397003,477.949432 497.407623,478.453705 495.966431,478.692444 
	C495.647217,478.814240 495.328003,478.936005 494.233337,479.085022 
	C484.388489,482.842651 474.543640,486.600311 463.962189,490.539581 
	C456.333771,494.437042 448.705322,498.334503 440.421082,502.420685 
	C432.465576,508.507904 424.510071,514.595093 416.554596,520.682312 
	C416.953552,521.294128 417.352509,521.906006 417.751465,522.517822 
	C427.495361,517.304810 437.239288,512.091858 447.732513,506.964264 
	C450.641052,505.791077 453.495392,504.453278 456.468018,503.474884 
	C466.300140,500.238678 476.174988,497.132294 486.577362,494.567566 
	C483.452087,499.058380 480.326813,503.549225 476.727081,508.527405 
	C472.792419,513.960693 468.857758,519.393982 464.461731,524.990662 
	C464.165741,525.173645 463.987640,525.436462 463.168427,525.909302 
	C450.698853,531.132385 438.229309,536.355408 425.479340,541.548645 
	C425.287476,541.630188 425.174255,541.773926 424.541321,542.050903 
	C424.228180,542.289429 423.915070,542.528015 423.026337,542.843933 
	C422.373566,543.225159 421.720795,543.606384 420.480835,544.041809 
	C420.171387,544.271606 419.861938,544.501404 418.875671,544.864502 
	C406.265656,553.049255 393.420410,560.902527 381.170441,569.594727 
	C376.758362,572.725403 373.777039,577.872559 370.033142,582.061829 
	C370.033142,582.061829 370.112030,582.146729 369.577576,582.388855 
	C369.279327,582.884460 368.981079,583.380005 368.174255,584.317993 
	C361.621948,594.326294 357.651093,605.023499 359.314117,618.008179 
	C359.743042,628.783203 366.645172,635.610840 373.849396,642.793274 
	C363.088348,657.300354 352.327301,671.807434 341.286469,686.691772 
	C345.791016,686.691772 349.420807,686.691772 353.951111,686.923218 
	C368.277863,686.807495 382.604584,686.691772 397.634979,686.715149 
	C398.107758,686.662842 398.580566,686.610535 399.843719,686.821838 
	C400.691498,686.821045 401.539307,686.820312 403.198395,686.947083 
M706.630981,471.747925 
	C711.305786,468.154602 713.886536,463.403503 713.999634,457.082947 
	C709.972473,461.374481 705.945251,465.666016 701.328552,470.266998 
	C698.070557,473.096588 694.812561,475.926208 690.925537,478.973938 
	C686.888428,481.942505 682.851257,484.911102 678.201172,488.207916 
	C671.677307,491.952148 665.153503,495.696381 658.629639,499.440582 
	C658.771240,499.765930 658.912781,500.091248 659.054382,500.416565 
	C666.340454,497.522797 673.626465,494.629028 681.610779,491.692017 
	C685.778198,488.855927 689.945618,486.019836 694.788147,483.015778 
	C698.525391,479.342072 702.262634,475.668365 706.630981,471.747925 
M677.018494,590.199829 
	C667.000488,590.421692 656.982483,590.643555 646.041565,590.717896 
	C640.212463,590.715454 634.366028,590.466980 628.565674,590.873840 
	C627.007629,590.983215 625.589600,593.087708 624.107361,594.276367 
	C625.565857,595.529602 626.975098,597.785767 628.491394,597.860168 
	C634.626404,598.161255 640.794373,597.790649 647.868835,597.892273 
	C658.231995,597.807068 668.595215,597.721802 679.850952,597.847961 
	C682.320129,597.845154 684.937500,598.342041 687.207947,597.668823 
	C688.796082,597.197998 689.910034,595.127808 691.235718,593.771912 
	C689.920776,592.574097 688.733765,590.580811 687.264221,590.344482 
	C684.232910,589.857117 681.050903,590.307007 677.018494,590.199829 
M574.911194,329.037170 
	C580.723755,329.020233 586.552002,329.229492 592.337708,328.826721 
	C593.778137,328.726410 595.080994,326.649170 596.447144,325.480621 
	C595.226868,324.149811 594.054321,321.727203 592.778320,321.671448 
	C586.187988,321.383453 579.571167,321.701477 572.035889,321.697968 
	C561.731628,321.669098 551.422180,321.469391 541.128296,321.781952 
	C539.441101,321.833191 537.822510,324.140167 536.172241,325.404602 
	C537.812988,326.610626 539.430237,328.820984 541.098206,328.859924 
	C552.056335,329.115662 563.025269,328.902924 574.911194,329.037170 
M393.499329,703.023621 
	C398.493225,703.014893 403.487610,702.960693 408.480835,703.015259 
	C411.271271,703.045776 414.291412,703.121826 414.285248,699.367920 
	C414.279144,695.638489 411.290619,695.697266 408.476868,695.699341 
	C386.171295,695.715698 363.865692,695.676575 341.560089,695.660461 
	C340.563019,695.659790 339.290070,695.341064 338.626953,695.827209 
	C337.297455,696.801636 335.484161,698.187500 335.415314,699.485535 
	C335.355804,700.607666 337.255249,702.171021 338.626862,702.921143 
	C339.661407,703.486938 341.230225,703.098083 342.561218,703.096252 
	C359.207336,703.073547 375.853485,703.044006 393.499329,703.023621 
M392.499817,427.854980 
	C381.682831,427.858887 370.860840,427.701294 360.054077,428.035492 
	C358.372437,428.087524 356.760223,430.384918 355.115875,431.643982 
	C356.709747,432.884796 358.294342,435.190033 359.898987,435.204010 
	C378.867340,435.369904 397.838776,435.198547 416.809296,435.100800 
	C419.447968,435.087189 422.147552,434.796783 421.987793,431.276703 
	C421.828247,427.762115 419.058350,427.852539 416.465057,427.859009 
	C408.810028,427.878143 401.154907,427.853516 392.499817,427.854980 
M599.500244,314.741241 
	C608.828735,314.739288 618.164490,314.924011 627.478821,314.559784 
	C629.116089,314.495758 630.663513,312.132172 632.252441,310.830566 
	C630.760376,309.572266 629.286255,307.246124 627.773621,307.220795 
	C612.619507,306.967346 597.457275,306.990173 582.303589,307.272980 
	C580.834229,307.300415 578.505737,309.383148 578.151245,310.883942 
	C577.448547,313.858551 579.843933,314.806244 582.509155,314.798676 
	C587.839661,314.783508 593.170105,314.759674 599.500244,314.741241 
M347.500000,716.997498 
	C354.484375,717.028076 361.482422,717.308594 368.444244,716.927673 
	C370.382355,716.821594 373.573608,714.981689 373.810211,713.545227 
	C374.302429,710.556519 371.639313,709.753174 368.756683,709.770569 
	C352.293884,709.869751 335.830383,709.850952 319.367096,709.859985 
	C316.685913,709.861511 313.975647,710.222473 314.101166,713.608826 
	C314.222198,716.874329 316.798248,717.181335 319.561371,717.139404 
	C328.539581,717.003052 337.520264,717.029724 347.500000,716.997498 
M392.260559,446.355621 
	C392.260498,443.030396 390.166351,442.159363 387.336182,442.162415 
	C375.376892,442.175323 363.413177,442.033325 351.462799,442.367157 
	C349.556000,442.420441 346.356506,444.384857 346.107117,445.862762 
	C345.532898,449.265167 348.575745,449.977722 351.473511,449.972412 
	C363.266174,449.950836 375.061493,450.039917 386.848694,449.772644 
	C388.614716,449.732574 390.342682,448.012878 392.260559,446.355621 
M744.759094,423.141205 
	C741.388916,416.187531 734.915894,413.812225 730.014954,417.730743 
	C726.372620,420.642822 725.273010,424.886414 727.141907,428.818390 
	C729.100159,432.938690 733.553101,435.211639 737.788147,434.252716 
	C742.751770,433.128754 744.870728,430.050934 744.759094,423.141205 
M333.592834,644.702454 
	C336.297485,648.473938 340.285065,649.761536 344.087372,647.785156 
	C346.620056,646.468689 348.883667,643.361328 349.823059,640.569519 
	C351.044403,636.939819 348.955750,633.100769 345.441559,632.115601 
	C342.325684,631.242065 338.039581,631.409668 335.327118,632.963257 
	C331.236877,635.305969 331.299622,639.830688 333.592834,644.702454 
M709.937195,582.976807 
	C711.398315,581.763977 712.859375,580.551086 714.320496,579.338257 
	C712.786316,578.091187 711.297363,575.838013 709.710449,575.766724 
	C701.757019,575.409485 693.766418,575.403503 685.817261,575.818054 
	C684.182739,575.903259 681.604614,578.117737 681.322388,579.685791 
	C680.740051,582.921082 683.713928,583.014832 686.107117,583.017517 
	C693.754395,583.026062 701.401611,582.999695 709.937195,582.976807 
M659.830200,521.251587 
	C661.375488,517.319641 660.565186,513.520386 656.956726,511.789551 
	C654.330383,510.529846 650.054504,510.019684 647.837402,511.361664 
	C645.671021,512.672913 644.085876,516.842957 644.303528,519.595398 
	C644.478638,521.810669 647.354126,524.734802 649.693176,525.646301 
	C653.455627,527.112488 657.205688,525.784729 659.830200,521.251587 
M275.147034,710.274963 
	C272.860931,714.328918 273.549011,716.872070 277.267395,717.010437 
	C283.556641,717.244385 289.874207,717.268982 296.149628,716.886353 
	C297.510132,716.803406 298.742950,714.626709 300.034576,713.414368 
	C298.755249,712.167480 297.518524,709.900757 296.189484,709.845276 
	C289.425720,709.563049 282.638092,709.853149 275.147034,710.274963 
M662.463623,575.968689 
	C658.798828,575.985168 655.093933,575.699097 651.490295,576.177063 
	C650.172485,576.351868 648.283691,578.256836 648.153870,579.525757 
	C648.041687,580.622986 649.997681,582.930359 651.132874,582.992432 
	C657.769592,583.355103 664.441345,583.386841 671.081848,583.091858 
	C672.341614,583.035889 673.513855,581.011536 674.726440,579.895386 
	C673.461243,578.599915 672.393127,576.590576 670.885315,576.174438 
	C668.560242,575.532715 665.933838,575.982361 662.463623,575.968689 
M411.306976,515.727661 
	C414.762299,511.540649 414.790833,507.866302 411.390289,505.014099 
	C408.435760,502.535950 404.066925,502.783752 401.572174,505.571014 
	C399.099274,508.333893 398.940002,513.371460 402.131439,515.214417 
	C404.403687,516.526550 407.796875,515.897644 411.306976,515.727661 
M338.134796,435.037170 
	C338.761078,433.541473 340.089630,431.885254 339.795868,430.599823 
	C339.552063,429.532898 337.490662,428.522827 336.066833,428.176392 
	C334.354248,427.759644 332.292419,427.609406 330.700623,428.201263 
	C329.175629,428.768311 327.348602,430.264191 327.012207,431.675537 
	C326.787354,432.618866 328.750977,434.896027 330.065674,435.215179 
	C332.381195,435.777283 334.949463,435.298340 338.134796,435.037170 
M735.628052,583.559631 
	C736.616150,583.486450 737.823730,583.747009 738.547241,583.271423 
	C740.112732,582.242310 741.430298,580.836060 742.849182,579.584045 
	C741.337341,578.385254 739.919312,577.026367 738.271057,576.060303 
	C737.528992,575.625366 736.193359,575.666565 735.360840,576.028931 
	C733.329407,576.913269 730.116089,577.779419 729.746643,579.248474 
	C728.854431,582.796021 732.098450,583.263000 735.628052,583.559631 
M514.967102,328.689362 
	C516.206482,327.236908 517.445862,325.784454 518.685303,324.332031 
	C517.061462,323.213440 515.534668,321.889282 513.774780,321.059082 
	C512.830688,320.613739 511.189545,320.584259 510.386841,321.133209 
	C508.942688,322.120941 507.226562,323.552856 506.927368,325.058228 
	C506.746948,325.966034 508.857666,327.664398 510.254028,328.440430 
	C511.301025,329.022217 512.850525,328.699738 514.967102,328.689362 
M658.499634,440.287262 
	C659.124939,438.750183 660.695862,436.506927 660.182800,435.819977 
	C659.041382,434.291718 656.781189,432.628662 655.122314,432.766754 
	C653.814758,432.875610 651.672974,435.647736 651.749329,437.142609 
	C651.926453,440.609863 654.588684,441.560577 658.499634,440.287262 
M563.344543,312.211731 
	C563.565674,309.244232 562.319214,307.100922 559.269348,307.212830 
	C557.574341,307.275024 555.463989,308.298706 554.432068,309.597260 
	C553.799927,310.392700 554.667542,313.772400 555.185364,313.850677 
	C557.554810,314.209015 560.040100,313.830200 562.479065,313.652100 
	C562.698547,313.636047 562.884583,313.161987 563.344543,312.211731 
M386.825989,532.843323 
	C388.085205,534.464539 389.118866,536.427429 390.741333,537.498169 
	C391.226715,537.818420 394.168488,535.855713 394.506561,534.554749 
	C394.843689,533.257385 393.312195,530.156555 392.625122,530.164001 
	C390.739502,530.184448 388.867065,531.421631 386.825989,532.843323 
M412.165009,443.579376 
	C410.284912,441.200226 407.947937,440.838898 405.909363,442.968445 
	C405.034393,443.882446 404.507721,446.427094 405.117401,447.173645 
	C406.138336,448.423828 409.007355,449.873322 409.653687,449.372864 
	C411.093872,448.257690 411.641571,445.989838 412.165009,443.579376 
M386.930939,710.505310 
	C384.933014,710.889771 382.806122,711.003723 381.028748,711.850952 
	C380.590393,712.059875 380.764191,715.386963 381.590027,715.979370 
	C382.794312,716.843201 385.887787,717.224182 386.319275,716.575684 
	C387.276215,715.137451 387.078308,712.930786 386.930939,710.505310 
M334.947632,579.740906 
	C333.319244,580.495117 331.370361,580.937134 330.200470,582.138062 
	C329.633545,582.720032 330.093475,585.131409 330.881042,585.971924 
	C331.677826,586.822327 333.765564,587.426636 334.744781,586.971130 
	C338.421753,585.260986 338.127808,582.673279 334.947632,579.740906 
M709.821716,446.681519 
	C711.369507,445.413055 713.103577,444.289124 714.299438,442.747620 
	C714.524048,442.458160 712.788391,439.831146 711.613586,439.499207 
	C710.404236,439.157501 707.515259,440.389038 707.542175,440.783264 
	C707.673767,442.710175 708.533997,444.587341 709.821716,446.681519 
z"/>
<path fill="#2F248E" opacity="1.000000" stroke="none" 
	d="
M444.962830,686.308228 
	C433.443970,686.441589 421.925079,686.574951 409.663635,686.513977 
	C406.764038,686.254211 404.607056,686.188782 402.090057,686.068237 
	C400.837799,686.194946 399.945557,686.376587 399.053345,686.558228 
	C398.580566,686.610535 398.107758,686.662842 396.943787,686.426392 
	C385.451355,686.081482 374.649841,685.961792 363.848969,686.004944 
	C360.248657,686.019348 356.649994,686.450928 353.050598,686.691772 
	C349.420807,686.691772 345.791016,686.691772 341.286469,686.691772 
	C352.327301,671.807434 363.088348,657.300354 374.268524,642.373413 
	C379.275482,635.505249 383.863342,629.056885 388.480927,622.429077 
	C388.808441,622.119812 389.106232,621.990051 389.796722,621.878845 
	C391.665802,621.223877 393.186768,620.632812 394.611389,619.863464 
	C404.409119,614.571899 414.186707,609.243103 423.932983,604.280396 
	C422.346985,605.779724 420.829712,606.970093 419.244385,608.061462 
	C415.189026,610.853516 410.987946,613.449585 407.071777,616.422546 
	C404.600372,618.298706 406.043823,627.555237 408.704620,627.349243 
	C414.000885,626.939148 414.344208,632.060364 417.600616,633.651855 
	C419.023010,634.346924 420.145355,635.727539 421.600372,636.269653 
	C424.709320,637.428162 426.072266,639.581177 427.076050,642.679688 
	C428.732849,647.793884 431.005981,652.715454 433.183167,657.645874 
	C433.484711,658.328796 434.768890,658.532104 435.515533,659.071777 
	C439.478363,661.935974 443.844421,664.326843 445.160736,669.734375 
	C446.257446,674.239807 447.929382,674.741577 451.931549,672.459778 
	C452.913971,671.899658 453.981384,671.488525 454.975281,671.354919 
	C453.963470,672.968262 452.911163,674.185486 452.023224,675.512695 
	C449.632263,679.086121 447.311462,682.706421 444.962830,686.308228 
z"/>
<path fill="#7833AD" opacity="1.000000" stroke="none" 
	d="
M398.959045,374.882507 
	C407.195801,363.678650 415.412872,352.460083 423.719910,341.308563 
	C424.200653,340.663147 425.412109,340.562012 426.636353,340.711945 
	C426.440979,345.915649 427.033264,350.316162 431.516205,352.914764 
	C438.122742,356.744354 444.934662,360.218597 451.566467,364.006409 
	C453.255341,364.971008 454.762756,366.398041 456.066772,367.867126 
	C462.151428,374.722229 467.487274,382.516785 478.604095,381.090027 
	C483.335266,380.482758 488.207367,380.973480 493.483063,380.972626 
	C505.302887,380.984467 516.655090,380.988861 528.473877,380.999878 
	C533.976257,381.064819 539.011963,381.123199 543.995239,381.513397 
	C541.289062,385.552673 538.635315,389.260162 535.685120,393.127747 
	C533.036377,396.251740 530.565796,399.130493 528.357910,402.198242 
	C524.454224,407.621918 520.710388,413.160675 516.899719,418.651276 
	C505.950043,418.701233 495.000397,418.751160 483.558838,418.318665 
	C481.431580,416.083191 479.865265,414.258362 478.140015,412.598724 
	C476.610748,411.127502 474.352631,410.149963 473.378204,408.414398 
	C470.163300,402.688141 467.143463,396.822937 464.502136,390.811829 
	C461.545105,384.082184 457.506653,381.007599 450.388000,381.009460 
	C441.255768,381.011902 432.123566,381.020813 422.523529,381.021729 
	C417.287567,381.007782 412.519379,380.987549 407.751221,380.993713 
	C403.391144,380.999329 399.629150,380.172638 398.959045,374.882507 
z"/>
<path fill="#9331BE" opacity="1.000000" stroke="none" 
	d="
M543.033264,419.984039 
	C543.040649,419.816193 543.048096,419.648346 543.252930,418.959412 
	C545.144714,416.649994 547.007568,414.991760 548.505493,413.051758 
	C557.017029,402.028076 565.441345,390.937073 574.105225,380.164978 
	C575.542236,382.890076 576.741821,385.333649 578.005188,387.743713 
	C579.024536,389.688324 579.714783,392.040802 581.254517,393.435883 
	C587.441895,399.041870 593.944336,404.298309 600.240906,409.786499 
	C602.571838,411.818115 604.586731,414.208313 606.868408,416.301331 
	C611.539795,420.586548 616.294128,424.781250 620.823853,429.262878 
	C619.756592,430.018097 618.879639,430.523743 617.643005,431.066162 
	C605.078064,435.804016 592.970398,440.782166 580.637756,445.121063 
	C570.223328,448.785095 559.548035,451.707947 548.595764,454.975708 
	C546.146912,455.342255 544.090515,455.691925 541.679321,455.990479 
	C537.454834,452.083893 533.441406,448.353912 529.856384,444.249756 
	C529.256836,443.563354 530.395447,441.208801 530.944641,439.703033 
	C531.836365,437.258026 532.904724,434.877441 533.898499,432.469666 
	C534.099731,432.038330 534.301025,431.607025 535.078979,431.052734 
	C537.691833,429.100800 540.040039,427.505920 541.651489,425.358215 
	C542.677368,423.990967 542.610291,421.803650 543.033264,419.984039 
z"/>
<path fill="#239ACF" opacity="1.000000" stroke="none" 
	d="
M635.078857,680.162537 
	C632.559021,687.101379 626.963196,687.327332 620.470459,686.170715 
	C617.533875,684.801697 615.118469,683.288879 612.607422,683.108337 
	C603.920715,682.483887 595.179199,682.593933 586.499878,681.904114 
	C578.992371,681.307434 571.565430,679.605713 564.056763,679.145020 
	C558.659607,678.813782 552.901978,678.797119 547.833435,680.356873 
	C543.444519,681.707458 536.906921,679.605713 534.944702,686.386353 
	C531.248901,686.470764 527.553040,686.555115 523.345825,686.193054 
	C521.210876,683.881531 520.704041,682.100647 523.102112,680.407349 
	C526.062744,678.317017 528.783203,675.785583 531.962524,674.124084 
	C543.010010,668.350769 548.575745,659.102112 550.477783,647.013855 
	C562.961487,647.004700 574.977051,646.998779 587.462158,646.994324 
	C596.284851,647.001221 604.638062,647.006714 613.454468,647.013977 
	C617.928528,647.026611 621.939514,647.037354 625.966309,647.452026 
	C627.321411,654.270081 628.959412,660.641296 629.892090,667.114136 
	C630.486267,671.237854 629.010742,675.919739 634.569824,677.843689 
	C634.960266,677.978760 634.919250,679.360474 635.078857,680.162537 
z"/>
<path fill="#2D1358" opacity="1.000000" stroke="none" 
	d="
M423.970764,603.926270 
	C414.186707,609.243103 404.409119,614.571899 394.611389,619.863464 
	C393.186768,620.632812 391.665802,621.223877 389.961670,621.561279 
	C403.516663,603.182434 417.299408,585.139709 431.429016,566.980591 
	C432.539520,566.544006 433.284546,566.166382 434.069458,565.912048 
	C449.728485,560.837830 465.392151,555.777954 481.419159,550.702454 
	C493.458008,547.102356 505.178955,543.657898 516.795044,539.890198 
	C530.354919,535.492126 543.823242,530.811768 557.710022,526.207153 
	C560.946289,525.444031 563.803711,524.727600 566.661194,524.011169 
	C562.937317,528.878113 559.213440,533.744995 554.803223,538.785461 
	C552.506409,539.256409 550.810059,539.323547 549.299438,539.888062 
	C538.582275,543.892761 528.019714,548.346924 517.181702,551.983704 
	C504.156891,556.354309 490.928040,560.125366 477.741730,564.000000 
	C474.477081,564.959167 473.402588,566.234253 474.733307,569.708252 
	C475.704102,572.242676 475.623993,575.179688 475.789429,578.204712 
	C473.031311,579.617249 470.496155,580.762207 467.597534,581.958984 
	C456.556976,586.967529 445.815369,591.791992 435.236084,596.949402 
	C431.285980,598.875061 427.714752,601.577881 423.970764,603.926270 
z"/>
<path fill="#BA3ED2" opacity="1.000000" stroke="none" 
	d="
M611.000122,340.409302 
	C627.590637,340.278412 644.181091,340.147522 661.581177,340.201385 
	C676.488770,340.386139 690.586853,340.386139 704.684875,340.386139 
	C704.791016,340.931641 704.897095,341.477173 705.003235,342.022675 
	C698.605591,350.968872 692.208008,359.915070 685.523071,369.026672 
	C679.439331,376.455750 673.643005,383.719452 667.441650,390.982849 
	C661.778442,389.265259 655.315674,388.910095 651.512634,385.547089 
	C643.599304,378.549561 637.274841,369.787659 629.948792,362.082336 
	C624.871582,356.742249 619.574768,351.459564 613.658020,347.133240 
	C610.729004,344.991547 610.169495,343.343689 611.000122,340.409302 
z"/>
<path fill="#AF46C8" opacity="1.000000" stroke="none" 
	d="
M544.047729,381.181580 
	C539.011963,381.123199 533.976257,381.064819 528.435181,380.652527 
	C524.276306,375.884155 521.042114,371.011688 516.856201,367.178467 
	C512.276184,362.984344 507.260559,358.695740 501.642303,356.331482 
	C491.794128,352.187195 481.365326,349.402588 471.127228,346.217194 
	C468.065735,345.264648 466.727936,343.501587 466.969116,340.397644 
	C483.757263,340.353088 500.545380,340.299194 517.333557,340.266541 
	C535.963928,340.230286 554.594238,340.213470 573.664185,340.663666 
	C570.705811,345.967682 567.389771,350.856567 563.891846,355.611603 
	C557.642029,364.107361 551.282471,372.522369 544.735474,381.009979 
	C544.502197,381.048828 544.047729,381.181580 544.047729,381.181580 
z"/>
<path fill="#56289C" opacity="1.000000" stroke="none" 
	d="
M467.960999,581.907227 
	C470.496155,580.762207 473.031311,579.617249 476.166473,578.218872 
	C479.043915,577.058044 481.307037,576.112427 483.601257,575.249573 
	C496.749817,570.304199 509.865753,565.267700 523.076111,560.492798 
	C529.701111,558.098083 536.502625,556.191711 543.224365,554.064514 
	C531.975098,569.197021 520.715881,584.322144 509.487671,599.470337 
	C507.842865,601.689331 506.345703,604.017822 504.497009,606.826660 
	C501.813934,609.909424 499.414062,612.461182 496.685272,615.050354 
	C495.929626,615.758057 495.502838,616.428406 495.041016,617.385986 
	C494.678345,618.121399 494.350739,618.569641 493.692383,619.051636 
	C492.932526,619.757996 492.503448,620.430481 491.940613,621.375488 
	C491.217957,622.445984 490.629059,623.244080 489.714600,623.889465 
	C485.967010,621.837524 480.911987,620.759705 479.458374,617.870117 
	C476.308258,611.608154 469.926819,608.170837 467.876068,600.381714 
	C466.084778,593.578003 462.767700,588.182373 467.960999,581.907227 
z"/>
<path fill="#AC37CC" opacity="1.000000" stroke="none" 
	d="
M610.608398,340.322418 
	C610.169495,343.343689 610.729004,344.991547 613.658020,347.133240 
	C619.574768,351.459564 624.871582,356.742249 629.948792,362.082336 
	C637.274841,369.787659 643.599304,378.549561 651.512634,385.547089 
	C655.315674,388.910095 661.778442,389.265259 667.368652,391.279175 
	C667.360107,392.310028 667.019775,393.044312 666.420227,393.983093 
	C660.107727,401.713989 654.054443,409.240448 648.032593,416.533630 
	C648.064026,416.300415 648.027710,415.831085 647.960144,415.511780 
	C645.984497,413.658600 644.300110,411.588440 642.129761,410.683167 
	C632.513733,406.672180 627.177795,397.805145 619.728577,391.363586 
	C613.967163,386.381561 608.770264,380.752655 603.180481,375.564240 
	C599.648010,372.285370 595.830078,369.315918 592.190125,366.150238 
	C590.661072,364.820435 589.260986,363.342285 587.865723,361.639709 
	C588.283508,360.894318 588.637878,360.440857 589.368164,359.988281 
	C596.072083,357.398590 599.123657,352.448029 599.967590,345.553680 
	C600.711670,344.169006 601.402588,343.099731 602.320557,341.872406 
	C602.704590,341.193726 602.861511,340.673096 603.018372,340.152435 
	C605.417786,340.180115 607.817261,340.207825 610.608398,340.322418 
z"/>
<path fill="#3F92C8" opacity="1.000000" stroke="none" 
	d="
M586.992676,646.992798 
	C574.977051,646.998779 562.961487,647.004700 550.008057,647.010071 
	C533.080872,646.997375 517.091492,646.985229 501.211395,646.657104 
	C504.756287,641.509888 508.207001,636.689331 511.624237,631.845215 
	C517.400269,623.657227 523.155151,615.454346 528.918945,607.257690 
	C535.908997,607.505798 542.897766,607.828247 549.890015,607.956299 
	C551.964355,607.994324 554.048645,607.485718 556.546631,607.628174 
	C557.964294,610.018372 558.963867,612.007996 559.598389,613.997498 
	C558.257385,614.682251 557.281372,615.367004 556.305359,616.051819 
	C557.479248,617.313965 558.419312,619.198486 559.863647,619.741211 
	C573.098206,624.714539 579.062134,636.816223 586.992676,646.992798 
z"/>
<path fill="#207CBF" opacity="1.000000" stroke="none" 
	d="
M501.102173,646.973083 
	C517.091492,646.985229 533.080872,646.997375 549.539978,647.013306 
	C548.575745,659.102112 543.010010,668.350769 531.962524,674.124084 
	C528.783203,675.785583 526.062744,678.317017 523.102112,680.407349 
	C520.704041,682.100647 521.210876,683.881531 522.910034,686.035828 
	C506.276184,686.419495 489.566650,686.513977 472.429321,686.126221 
	C472.455231,684.782532 472.796082,683.834534 473.379517,683.072388 
	C482.602051,671.025208 491.855652,659.001831 501.102173,646.973083 
z"/>
<path fill="#54C8E2" opacity="1.000000" stroke="none" 
	d="
M560.998291,607.270142 
	C574.646667,607.234436 588.294983,607.201355 601.943359,607.162354 
	C621.745300,607.105713 641.547485,607.083557 661.349060,606.965088 
	C668.502075,606.922302 675.653015,606.605591 682.806213,606.500183 
	C684.594055,606.473816 686.386902,606.781860 689.541809,607.053833 
	C679.340759,620.860901 669.742126,633.852600 659.350952,646.943237 
	C655.374695,647.024109 652.190979,647.005981 648.999512,646.610779 
	C644.393921,638.721802 639.893311,631.146973 635.110596,623.754639 
	C634.226746,622.388611 632.280884,621.601624 630.691895,620.817383 
	C620.487427,615.781738 609.623352,614.781067 598.373840,614.852051 
	C589.327271,614.909058 580.203247,614.108887 571.255127,612.754211 
	C567.642273,612.207214 564.405945,609.172607 560.998291,607.270142 
z"/>
<path fill="#56289C" opacity="1.000000" stroke="none" 
	d="
M398.670105,375.065430 
	C399.629150,380.172638 403.391144,380.999329 407.751221,380.993713 
	C412.519379,380.987549 417.287567,381.007782 422.567169,381.379791 
	C428.215485,388.736115 429.779907,397.105774 430.620697,405.281769 
	C431.014740,409.113495 431.592682,411.133423 434.785645,413.090363 
	C436.631165,414.221436 437.615204,416.758179 438.986969,418.662262 
	C415.630371,418.706024 392.273773,418.749786 368.475220,418.450958 
	C367.998932,417.757080 367.964600,417.405823 367.930298,417.054535 
	C378.080597,403.119141 388.230865,389.183746 398.670105,375.065430 
z"/>
<path fill="#3AC9E4" opacity="1.000000" stroke="none" 
	d="
M740.665955,351.927917 
	C740.417786,353.719299 740.169678,355.510681 739.411621,357.662292 
	C734.664795,357.181946 730.615234,356.259277 728.613037,351.578522 
	C727.967896,350.070129 726.056885,349.107300 724.735840,347.883179 
	C720.553406,344.007660 715.207764,340.866119 715.839722,333.547241 
	C714.186462,332.791351 712.583496,332.398468 710.942627,331.658752 
	C710.701477,330.867859 710.595825,330.333435 710.280579,329.993164 
	C704.398010,323.643860 698.349609,317.439819 692.683105,310.904358 
	C691.181396,309.172394 690.838623,306.435577 690.407410,304.110107 
	C707.382629,302.339050 723.914185,300.618011 741.309387,298.807068 
	C740.942749,306.441101 740.402344,313.034882 740.360046,319.631866 
	C740.291077,330.396118 740.547058,341.162445 740.665955,351.927917 
z"/>
<path fill="#3AC9E4" opacity="1.000000" stroke="none" 
	d="
M659.124390,474.246277 
	C651.388733,479.663910 643.966980,485.618225 635.841980,490.370056 
	C624.409668,497.056122 612.455750,502.850250 600.295532,508.631470 
	C598.586060,506.486298 596.183472,504.707336 596.226379,502.989532 
	C596.385437,496.631165 591.369995,492.541473 590.212646,486.689575 
	C601.565918,480.922791 612.734314,475.476929 623.821777,469.871033 
	C625.422729,469.061584 626.635010,467.483307 628.027222,466.260864 
	C634.394714,462.724609 640.762207,459.188354 647.528870,455.968567 
	C648.299194,457.347839 648.471863,458.542114 649.074341,459.451752 
	C652.366028,464.421875 655.763428,469.322021 659.124390,474.246277 
z"/>
<path fill="#6626A5" opacity="1.000000" stroke="none" 
	d="
M439.448120,418.754639 
	C437.615204,416.758179 436.631165,414.221436 434.785645,413.090363 
	C431.592682,411.133423 431.014740,409.113495 430.620697,405.281769 
	C429.779907,397.105774 428.215485,388.736115 423.034973,381.385010 
	C432.123566,381.020813 441.255768,381.011902 450.388000,381.009460 
	C457.506653,381.007599 461.545105,384.082184 464.502136,390.811829 
	C467.143463,396.822937 470.163300,402.688141 473.378204,408.414398 
	C474.352631,410.149963 476.610748,411.127502 478.140015,412.598724 
	C479.865265,414.258362 481.431580,416.083191 483.123169,418.234009 
	C468.755981,418.703552 454.332642,418.775269 439.448120,418.754639 
z"/>
<path fill="#A033C5" opacity="1.000000" stroke="none" 
	d="
M466.511658,340.304504 
	C466.727936,343.501587 468.065735,345.264648 471.127228,346.217194 
	C481.365326,349.402588 491.794128,352.187195 501.642303,356.331482 
	C507.260559,358.695740 512.276184,362.984344 516.856201,367.178467 
	C521.042114,371.011688 524.276306,375.884155 527.968628,380.645935 
	C516.655090,380.988861 505.302887,380.984467 493.441986,380.628204 
	C482.473297,366.193787 468.185059,356.631744 453.646576,347.475311 
	C450.609467,345.562531 448.390564,344.263580 450.008026,340.421570 
	C455.356750,340.351501 460.705475,340.281433 466.511658,340.304504 
z"/>
<path fill="#49BCDB" opacity="1.000000" stroke="none" 
	d="
M560.595825,607.185547 
	C564.405945,609.172607 567.642273,612.207214 571.255127,612.754211 
	C580.203247,614.108887 589.327271,614.909058 598.373840,614.852051 
	C609.623352,614.781067 620.487427,615.781738 630.691895,620.817383 
	C632.280884,621.601624 634.226746,622.388611 635.110596,623.754639 
	C639.893311,631.146973 644.393921,638.721802 648.530151,646.617432 
	C640.695862,647.016846 633.323120,647.032532 625.950439,647.048218 
	C621.939514,647.037354 617.928528,647.026611 613.413452,646.630188 
	C612.693298,645.619690 612.373108,645.010437 612.276733,644.367615 
	C610.099182,629.850037 595.416199,617.783447 580.175415,617.943909 
	C578.413635,617.962402 576.650452,617.195251 574.876770,616.850098 
	C569.908752,615.883179 564.934937,614.946289 559.963379,613.997559 
	C558.963867,612.007996 557.964294,610.018372 556.952271,607.682861 
	C558.024231,607.258301 559.108826,607.179626 560.595825,607.185547 
z"/>
<path fill="#2355A4" opacity="1.000000" stroke="none" 
	d="
M359.387848,617.243774 
	C357.651093,605.023499 361.621948,594.326294 368.739685,584.035339 
	C369.574097,583.217346 369.843048,582.682068 370.112030,582.146729 
	C370.112030,582.146729 370.033142,582.061829 370.445160,582.073608 
	C375.559662,578.541870 380.021729,574.607971 385.013092,571.533447 
	C396.524261,564.442871 408.292389,557.769470 420.110413,551.246338 
	C423.213593,556.774475 426.162659,561.983093 428.848755,567.434692 
	C421.725769,570.820190 414.865753,573.962830 407.664734,577.217651 
	C391.184204,584.008179 376.631653,592.982849 365.649445,606.870667 
	C363.164124,610.013550 361.454529,613.769836 359.387848,617.243774 
z"/>
<path fill="#040D24" opacity="1.000000" stroke="none" 
	d="
M359.350983,617.625977 
	C361.454529,613.769836 363.164124,610.013550 365.649445,606.870667 
	C376.631653,592.982849 391.184204,584.008179 407.671204,577.568542 
	C404.172211,583.351318 400.255157,588.848022 396.495880,594.450500 
	C390.790894,602.952637 387.522705,612.191528 388.451172,622.608521 
	C383.863342,629.056885 379.275482,635.505249 374.359650,642.048340 
	C366.645172,635.610840 359.743042,628.783203 359.350983,617.625977 
z"/>
<path fill="#2355A4" opacity="1.000000" stroke="none" 
	d="
M501.211365,646.657104 
	C491.855652,659.001831 482.602051,671.025208 473.379517,683.072388 
	C472.796082,683.834534 472.455231,684.782532 471.988281,685.961731 
	C467.582611,686.393860 463.190216,686.508240 458.385864,686.125977 
	C458.831116,684.039001 459.499084,682.304993 460.579163,680.884216 
	C464.677582,675.493042 469.042664,670.301758 473.066406,664.857239 
	C485.534637,647.986450 497.940308,631.068665 510.226990,614.065674 
	C511.649200,612.097473 512.171936,609.479370 513.111755,607.162659 
	C518.077576,607.142395 523.043396,607.122131 528.464111,607.179810 
	C523.155151,615.454346 517.400269,623.657227 511.624237,631.845215 
	C508.207001,636.689331 504.756287,641.509888 501.211365,646.657104 
z"/>
<path fill="#2D1358" opacity="1.000000" stroke="none" 
	d="
M464.923096,524.827271 
	C468.857758,519.393982 472.792419,513.960693 477.347656,508.268066 
	C504.976776,499.316345 531.985291,490.623993 559.242554,481.955627 
	C559.491394,481.979614 559.990234,482.002869 560.029785,482.354858 
	C561.443359,483.975159 562.753174,485.323425 564.208862,486.489716 
	C565.730164,487.708527 567.391846,488.752167 568.651855,490.010162 
	C565.122498,491.473083 561.994202,492.975861 558.733582,494.092316 
	C545.151550,498.742950 531.529724,503.277374 517.536682,507.914703 
	C515.727112,508.369568 514.285583,508.709656 512.882263,509.166901 
	C496.892487,514.376709 480.908569,519.604370 464.923096,524.827271 
z"/>
<path fill="#54C8E2" opacity="1.000000" stroke="none" 
	d="
M659.460205,474.158508 
	C655.763428,469.322021 652.366028,464.421875 649.074341,459.451752 
	C648.471863,458.542114 648.299194,457.347839 647.888794,455.864258 
	C657.024109,448.875122 666.508911,442.690460 675.268799,435.609131 
	C681.561584,430.522217 686.886169,424.237732 693.286377,418.333740 
	C696.824341,419.385284 702.281738,417.970734 700.174011,424.288757 
	C700.174011,424.288757 700.151428,424.651062 699.840881,424.972778 
	C699.433228,425.654816 699.336121,426.015106 699.239014,426.375427 
	C699.239014,426.375427 699.251648,426.705261 698.884888,427.033386 
	C698.063477,428.651520 697.608887,429.941528 697.154297,431.231567 
	C691.930298,438.994720 687.404236,447.368866 681.290100,454.352661 
	C674.923950,461.624420 667.024841,467.554169 659.460205,474.158508 
z"/>
<path fill="#9331BE" opacity="1.000000" stroke="none" 
	d="
M449.548279,340.319397 
	C448.390564,344.263580 450.609467,345.562531 453.646576,347.475311 
	C468.185059,356.631744 482.473297,366.193787 492.974335,380.620789 
	C488.207367,380.973480 483.335266,380.482758 478.604095,381.090027 
	C467.487274,382.516785 462.151428,374.722229 456.066772,367.867126 
	C454.762756,366.398041 453.255341,364.971008 451.566467,364.006409 
	C444.934662,360.218597 438.122742,356.744354 431.516205,352.914764 
	C427.033264,350.316162 426.440979,345.915649 426.984589,340.799316 
	C434.349518,340.327332 441.718994,340.272308 449.548279,340.319397 
z"/>
<path fill="#3BAED4" opacity="1.000000" stroke="none" 
	d="
M590.001831,486.959167 
	C591.369995,492.541473 596.385437,496.631165 596.226379,502.989532 
	C596.183472,504.707336 598.586060,506.486298 599.926819,508.590759 
	C591.004089,512.995239 582.019836,517.044067 573.038086,521.098572 
	C571.101013,521.972900 569.173218,522.867798 566.951172,523.882202 
	C563.803711,524.727600 560.946289,525.444031 557.419678,525.995911 
	C559.701538,521.221008 558.505981,516.580261 556.468201,512.173096 
	C554.980286,508.954987 552.842590,506.037292 551.217102,502.716553 
	C556.626709,500.297394 561.792908,498.095398 567.005493,496.009491 
	C574.653503,492.949127 582.334778,489.971832 590.001831,486.959167 
z"/>
<path fill="#0C3C6D" opacity="1.000000" stroke="none" 
	d="
M512.650879,607.100098 
	C512.171936,609.479370 511.649200,612.097473 510.226990,614.065674 
	C497.940308,631.068665 485.534637,647.986450 473.066406,664.857239 
	C469.042664,670.301758 464.677582,675.493042 460.579163,680.884216 
	C459.499084,682.304993 458.831116,684.039001 457.947144,685.953857 
	C453.902283,686.374146 449.884155,686.469849 445.414429,686.436890 
	C447.311462,682.706421 449.632263,679.086121 452.023224,675.512695 
	C452.911163,674.185486 453.963470,672.968262 455.218567,671.192566 
	C455.675446,670.141235 455.854614,669.598206 456.350586,669.000732 
	C457.117523,668.302124 457.567596,667.658020 458.281067,666.804321 
	C461.205475,663.055420 463.892670,659.535461 466.522552,655.973083 
	C474.373779,645.338318 482.202576,634.687012 490.040131,624.042114 
	C490.629059,623.244080 491.217957,622.445984 492.254272,621.310364 
	C493.142151,620.321106 493.582642,619.669495 494.023132,619.017822 
	C494.350739,618.569641 494.678345,618.121399 495.354248,617.320679 
	C496.139771,616.316406 496.576965,615.664673 497.014160,615.012939 
	C499.414062,612.461182 501.813934,609.909424 504.490051,607.196289 
	C507.240875,607.035889 509.715454,607.036743 512.650879,607.100098 
z"/>
<path fill="#56289C" opacity="1.000000" stroke="none" 
	d="
M558.993774,481.931641 
	C531.985291,490.623993 504.976776,499.316345 477.584900,508.024384 
	C480.326813,503.549225 483.452087,499.058380 486.273651,494.277405 
	C485.969940,493.987274 485.970093,494.052307 486.314697,494.272705 
	C486.890381,494.348297 487.121460,494.203522 487.620789,493.856018 
	C491.259460,492.083893 494.629913,490.514496 498.384277,488.912170 
	C508.179230,485.910583 517.590332,482.941925 527.403931,479.973236 
	C535.534973,477.635406 543.263489,475.297638 551.136169,473.266571 
	C553.851501,476.359406 556.422607,479.145538 558.993774,481.931641 
z"/>
<path fill="#46176A" opacity="1.000000" stroke="none" 
	d="
M543.501587,553.895630 
	C536.502625,556.191711 529.701111,558.098083 523.076111,560.492798 
	C509.865753,565.267700 496.749817,570.304199 483.601257,575.249573 
	C481.307037,576.112427 479.043915,577.058044 476.389404,577.951294 
	C475.623993,575.179688 475.704102,572.242676 474.733307,569.708252 
	C473.402588,566.234253 474.477081,564.959167 477.741730,564.000000 
	C490.928040,560.125366 504.156891,556.354309 517.181702,551.983704 
	C528.019714,548.346924 538.582275,543.892761 549.299438,539.888062 
	C550.810059,539.323547 552.506409,539.256409 554.519653,538.963318 
	C551.207947,543.887329 547.493408,548.807068 543.501587,553.895630 
z"/>
<path fill="#AF46C8" opacity="1.000000" stroke="none" 
	d="
M500.044098,477.277161 
	C500.474823,476.622437 500.905548,475.967712 501.833801,475.471497 
	C506.154327,474.790497 510.064087,474.227478 513.784485,473.060822 
	C525.946289,469.246918 538.039001,465.213135 550.545776,461.209137 
	C560.962280,457.823059 571.225586,455.057220 580.963318,451.022614 
	C594.211609,445.533356 607.058411,439.075012 620.420654,432.990234 
	C622.296570,432.399445 623.829224,431.850647 625.361816,431.301849 
	C624.274109,433.415436 622.856323,434.786591 621.242737,435.864532 
	C612.167725,441.926758 603.045654,447.918488 593.588013,453.993774 
	C579.510376,459.986511 565.784241,465.919739 552.000366,471.502747 
	C551.268738,466.540039 549.078430,465.817902 544.748657,467.466248 
	C537.972839,470.045807 530.917847,471.892090 523.609314,474.087158 
	C514.917114,476.544891 506.574554,478.892090 498.289948,481.428436 
	C495.817627,482.185364 494.852692,481.582336 495.008789,479.057770 
	C495.328003,478.936005 495.647217,478.814240 496.572937,478.816223 
	C498.134338,478.385681 499.089233,477.831421 500.044098,477.277161 
z"/>
<path fill="#78E8EF" opacity="1.000000" stroke="none" 
	d="
M740.975098,351.682434 
	C740.547058,341.162445 740.291077,330.396118 740.360046,319.631866 
	C740.402344,313.034882 740.942749,306.441101 741.309387,298.807068 
	C723.914185,300.618011 707.382629,302.339050 690.002563,304.117767 
	C684.347229,304.663635 679.540527,305.151764 674.733765,305.639923 
	C679.452393,304.418091 684.159363,303.149139 688.891602,301.982635 
	C708.061584,297.257263 727.235962,292.549805 746.419556,287.879974 
	C748.278259,287.427460 750.211365,287.280670 753.107666,286.840302 
	C749.067139,308.915649 745.175720,330.176270 740.975098,351.682434 
z"/>
<path fill="#7833AD" opacity="1.000000" stroke="none" 
	d="
M593.939636,453.934265 
	C603.045654,447.918488 612.167725,441.926758 621.242737,435.864532 
	C622.856323,434.786591 624.274109,433.415436 625.361816,431.301849 
	C623.829224,431.850647 622.296570,432.399445 620.146362,432.869385 
	C619.020142,432.203461 618.511414,431.616425 618.002747,431.029388 
	C618.879639,430.523743 619.756592,430.018097 621.182251,429.218201 
	C623.968201,427.888062 626.236023,426.913269 628.436523,425.804840 
	C634.981140,422.508453 641.499268,419.159515 648.027710,415.831116 
	C648.027710,415.831085 648.064026,416.300415 647.923828,416.871948 
	C645.861450,420.429016 643.939270,423.414520 642.017090,426.400024 
	C633.622986,437.241364 625.228088,448.082184 616.835693,458.924896 
	C615.823364,460.232788 614.824097,461.550842 613.306763,462.752747 
	C609.863464,463.412262 606.932129,464.183197 603.961121,464.612183 
	C600.594116,460.824951 597.266907,457.379608 593.939636,453.934265 
z"/>
<path fill="#3BAED4" opacity="1.000000" stroke="none" 
	d="
M674.356812,305.692535 
	C679.540527,305.151764 684.347229,304.663635 689.558838,304.167786 
	C690.838623,306.435577 691.181396,309.172394 692.683105,310.904358 
	C698.349609,317.439819 704.398010,323.643860 710.280579,329.993164 
	C710.595825,330.333435 710.701477,330.867859 710.476440,331.678162 
	C697.013672,332.026855 683.979065,332.009308 670.944519,331.991760 
	C674.865051,328.267273 678.785583,324.542816 682.967407,320.570190 
	C678.137573,316.132202 673.501587,311.872284 668.027100,306.841949 
	C670.877014,306.316864 672.428406,306.031006 674.356812,305.692535 
z"/>
<path fill="#207CBF" opacity="1.000000" stroke="none" 
	d="
M670.644470,332.131165 
	C683.979065,332.009308 697.013672,332.026855 710.514343,332.025024 
	C712.583496,332.398468 714.186462,332.791351 715.555481,333.726654 
	C710.864075,341.513733 706.406616,348.758392 701.684326,356.207733 
	C699.280579,360.274994 697.141663,364.137604 694.739380,368.193542 
	C693.374878,369.618469 692.273804,370.850037 690.997803,371.762634 
	C689.152039,370.582855 687.481201,369.722076 685.810364,368.861267 
	C692.208008,359.915070 698.605591,350.968872 705.003235,342.022675 
	C704.897095,341.477173 704.791016,340.931641 704.684875,340.386139 
	C690.586853,340.386139 676.488770,340.386139 662.025757,340.146820 
	C664.555359,337.361847 667.449890,334.816193 670.644470,332.131165 
z"/>
<path fill="#3BAED4" opacity="1.000000" stroke="none" 
	d="
M625.966309,647.452026 
	C633.323120,647.032532 640.695862,647.016846 648.537964,646.994507 
	C652.190979,647.005981 655.374695,647.024109 659.058594,647.055420 
	C651.595276,657.987976 643.631714,668.907288 635.373535,679.994568 
	C634.919250,679.360474 634.960266,677.978760 634.569824,677.843689 
	C629.010742,675.919739 630.486267,671.237854 629.892090,667.114136 
	C628.959412,660.641296 627.321411,654.270081 625.966309,647.452026 
z"/>
<path fill="#2F248E" opacity="1.000000" stroke="none" 
	d="
M392.999451,703.019897 
	C375.853485,703.044006 359.207336,703.073547 342.561218,703.096252 
	C341.230225,703.098083 339.661407,703.486938 338.626862,702.921143 
	C337.255249,702.171021 335.355804,700.607666 335.415314,699.485535 
	C335.484161,698.187500 337.297455,696.801636 338.626953,695.827209 
	C339.290070,695.341064 340.563019,695.659790 341.560089,695.660461 
	C363.865692,695.676575 386.171295,695.715698 408.476868,695.699341 
	C411.290619,695.697266 414.279144,695.638489 414.285248,699.367920 
	C414.291412,703.121826 411.271271,703.045776 408.480835,703.015259 
	C403.487610,702.960693 398.493225,703.014893 392.999451,703.019897 
z"/>
<path fill="#7833AD" opacity="1.000000" stroke="none" 
	d="
M544.968750,380.971130 
	C551.282471,372.522369 557.642029,364.107361 563.891846,355.611603 
	C567.389771,350.856567 570.705811,345.967682 574.122925,340.801178 
	C579.125183,340.341858 584.108398,340.220490 589.394470,340.482971 
	C581.808716,351.555176 573.920044,362.243591 565.737427,373.102478 
	C563.277527,375.844727 561.111633,378.416504 558.486938,380.986847 
	C553.675110,380.980652 549.321899,380.975891 544.968750,380.971130 
z"/>
<path fill="#46176A" opacity="1.000000" stroke="none" 
	d="
M558.945679,380.988220 
	C561.111633,378.416504 563.277527,375.844727 566.111572,373.127014 
	C569.581055,374.491699 574.031677,374.004791 573.965576,379.174286 
	C573.929321,379.404358 573.895386,379.868958 573.895386,379.868958 
	C565.441345,390.937073 557.017029,402.028076 548.505493,413.051758 
	C547.007568,414.991760 545.144714,416.649994 543.265137,418.707703 
	C539.698730,418.905609 536.317566,418.834198 532.542358,418.349548 
	C532.987427,416.553680 533.746948,415.114746 534.679382,413.798248 
	C538.419739,408.517609 542.213684,403.274994 546.292603,397.870392 
	C550.713501,392.144409 554.829590,386.566315 558.945679,380.988220 
z"/>
<path fill="#3BAED4" opacity="1.000000" stroke="none" 
	d="
M701.949158,356.003052 
	C706.406616,348.758392 710.864075,341.513733 715.605713,334.089661 
	C715.207764,340.866119 720.553406,344.007660 724.735840,347.883179 
	C726.056885,349.107300 727.967896,350.070129 728.613037,351.578522 
	C730.615234,356.259277 734.664795,357.181946 739.271118,358.028381 
	C739.125305,362.276245 738.610107,366.518219 737.881958,372.513763 
	C732.619568,366.865692 728.351990,362.285370 723.922302,357.531036 
	C721.039429,360.162201 718.392029,362.578400 715.176880,364.774048 
	C710.389038,361.703339 706.169128,358.853210 701.949158,356.003052 
z"/>
<path fill="#46176A" opacity="1.000000" stroke="none" 
	d="
M604.000854,464.954132 
	C606.932129,464.183197 609.863464,463.412262 613.011414,462.908600 
	C610.171936,467.441650 607.115784,471.707397 603.590454,476.413757 
	C591.744873,481.193695 580.368469,485.533051 568.992126,489.872375 
	C567.391846,488.752167 565.730164,487.708527 564.208862,486.489716 
	C562.753174,485.323425 561.443359,483.975159 560.351440,482.190491 
	C562.315491,481.001831 563.989868,480.309906 565.680603,479.660309 
	C578.452271,474.753571 591.227051,469.855164 604.000854,464.954132 
z"/>
<path fill="#54C8E2" opacity="1.000000" stroke="none" 
	d="
M568.651855,490.010132 
	C580.368469,485.533051 591.744873,481.193695 603.474060,476.724915 
	C611.655396,473.139130 619.483948,469.682739 627.669800,466.243591 
	C626.635010,467.483307 625.422729,469.061584 623.821777,469.871033 
	C612.734314,475.476929 601.565918,480.922791 590.212646,486.689575 
	C582.334778,489.971832 574.653503,492.949127 567.005493,496.009491 
	C561.792908,498.095398 556.626709,500.297394 550.844238,502.767090 
	C540.840393,506.126068 531.431946,509.165436 521.895752,511.888367 
	C520.486206,510.332764 519.204346,509.093597 517.922485,507.854431 
	C531.529724,503.277374 545.151550,498.742950 558.733582,494.092316 
	C561.994202,492.975861 565.122498,491.473083 568.651855,490.010132 
z"/>
<path fill="#7833AD" opacity="1.000000" stroke="none" 
	d="
M392.999817,427.850525 
	C401.154907,427.853516 408.810028,427.878143 416.465057,427.859009 
	C419.058350,427.852539 421.828247,427.762115 421.987793,431.276703 
	C422.147552,434.796783 419.447968,435.087189 416.809296,435.100800 
	C397.838776,435.198547 378.867340,435.369904 359.898987,435.204010 
	C358.294342,435.190033 356.709747,432.884796 355.115875,431.643982 
	C356.760223,430.384918 358.372437,428.087524 360.054077,428.035492 
	C370.860840,427.701294 381.682831,427.858887 392.999817,427.850525 
z"/>
<path fill="#56289C" opacity="1.000000" stroke="none" 
	d="
M574.001831,378.944214 
	C574.031677,374.004791 569.581055,374.491699 566.405579,372.956573 
	C573.920044,362.243591 581.808716,351.555176 589.851685,340.582153 
	C593.681580,340.223969 597.357178,340.150391 601.497070,340.450073 
	C602.005432,341.225677 602.049500,341.628052 602.093506,342.030457 
	C601.402588,343.099731 600.711670,344.169006 599.679565,345.731567 
	C595.889648,350.812347 592.440979,355.399841 588.992310,359.987366 
	C588.637878,360.440857 588.283508,360.894318 587.585815,361.806946 
	C586.489868,363.148285 585.706055,364.005981 584.989685,364.916779 
	C581.317566,369.585083 577.662720,374.267029 574.001831,378.944214 
z"/>
<path fill="#653BA2" opacity="1.000000" stroke="none" 
	d="
M498.000366,488.945068 
	C494.629913,490.514496 491.259460,492.083893 487.528564,493.568695 
	C486.768768,493.673492 486.369446,493.862915 485.970093,494.052307 
	C485.970093,494.052307 485.969940,493.987274 486.001709,493.981689 
	C476.174988,497.132294 466.300140,500.238678 456.468018,503.474884 
	C453.495392,504.453278 450.641052,505.791077 447.300232,506.586182 
	C444.937622,504.882751 443.007263,503.557373 441.076904,502.231995 
	C448.705322,498.334503 456.333771,494.437042 464.540344,490.816711 
	C466.513306,491.312012 468.074371,492.046021 469.274292,491.659424 
	C474.576996,489.950745 479.744537,487.828125 485.019684,486.027313 
	C492.464813,483.485748 495.407532,482.351898 498.000366,488.945068 
z"/>
<path fill="#54C8E2" opacity="1.000000" stroke="none" 
	d="
M599.000427,314.740326 
	C593.170105,314.759674 587.839661,314.783508 582.509155,314.798676 
	C579.843933,314.806244 577.448547,313.858551 578.151245,310.883942 
	C578.505737,309.383148 580.834229,307.300415 582.303589,307.272980 
	C597.457275,306.990173 612.619507,306.967346 627.773621,307.220795 
	C629.286255,307.246124 630.760376,309.572266 632.252441,310.830566 
	C630.663513,312.132172 629.116089,314.495758 627.478821,314.559784 
	C618.164490,314.924011 608.828735,314.739288 599.000427,314.740326 
z"/>
<path fill="#2F248E" opacity="1.000000" stroke="none" 
	d="
M347.000000,716.995544 
	C337.520264,717.029724 328.539581,717.003052 319.561371,717.139404 
	C316.798248,717.181335 314.222198,716.874329 314.101166,713.608826 
	C313.975647,710.222473 316.685913,709.861511 319.367096,709.859985 
	C335.830383,709.850952 352.293884,709.869751 368.756683,709.770569 
	C371.639313,709.753174 374.302429,710.556519 373.810211,713.545227 
	C373.573608,714.981689 370.382355,716.821594 368.444244,716.927673 
	C361.482422,717.308594 354.484375,717.028076 347.000000,716.995544 
z"/>
<path fill="#49BCDB" opacity="1.000000" stroke="none" 
	d="
M517.536682,507.914734 
	C519.204346,509.093597 520.486206,510.332764 521.704590,512.170776 
	C520.000000,513.489807 518.398682,514.324158 516.711487,514.912292 
	C501.469482,520.225708 486.212402,525.495972 470.600464,530.844604 
	C468.840332,531.226013 467.439484,531.541809 465.985809,531.506348 
	C465.264496,529.363037 464.595978,527.571106 463.927429,525.779114 
	C463.987640,525.436462 464.165741,525.173645 464.692413,524.908936 
	C480.908569,519.604370 496.892487,514.376709 512.882263,509.166901 
	C514.285583,508.709656 515.727112,508.369568 517.536682,507.914734 
z"/>
<path fill="#3BAED4" opacity="1.000000" stroke="none" 
	d="
M535.379761,686.542542 
	C536.906921,679.605713 543.444519,681.707458 547.833435,680.356873 
	C552.901978,678.797119 558.659607,678.813782 564.056763,679.145020 
	C571.565430,679.605713 578.992371,681.307434 586.499878,681.904114 
	C595.179199,682.593933 603.920715,682.483887 612.607422,683.108337 
	C615.118469,683.288879 617.533875,684.801697 620.038879,686.050171 
	C606.016663,686.364990 591.948608,686.333374 577.305969,685.875122 
	C575.615479,684.644531 574.524719,683.190613 573.379578,683.146423 
	C567.760864,682.929443 562.108398,682.832520 556.510193,683.254333 
	C554.608032,683.397705 552.829651,685.183289 550.994690,686.218445 
	C545.934692,686.378540 540.874756,686.538635 535.379761,686.542542 
z"/>
<path fill="#56289C" opacity="1.000000" stroke="none" 
	d="
M550.158325,461.263947 
	C538.039001,465.213135 525.946289,469.246918 513.784485,473.060822 
	C510.064087,474.227478 506.154327,474.790497 502.099091,475.336426 
	C504.626465,471.269348 507.386047,467.495850 510.603333,463.869751 
	C511.959076,464.201752 512.935669,464.714233 513.743164,464.520813 
	C522.721008,462.370026 531.679443,460.136353 540.615784,457.819550 
	C541.202759,457.667419 541.566528,456.654266 542.034119,456.041565 
	C544.090515,455.691925 546.146912,455.342255 548.783813,455.255310 
	C549.629028,457.433350 549.893677,459.348633 550.158325,461.263947 
z"/>
<path fill="#7833AD" opacity="1.000000" stroke="none" 
	d="
M392.174408,446.712891 
	C390.342682,448.012878 388.614716,449.732574 386.848694,449.772644 
	C375.061493,450.039917 363.266174,449.950836 351.473511,449.972412 
	C348.575745,449.977722 345.532898,449.265167 346.107117,445.862762 
	C346.356506,444.384857 349.556000,442.420441 351.462799,442.367157 
	C363.413177,442.033325 375.376892,442.175323 387.336182,442.162415 
	C390.166351,442.159363 392.260498,443.030396 392.174408,446.712891 
z"/>
<path fill="#7833AD" opacity="1.000000" stroke="none" 
	d="
M541.679321,455.990479 
	C541.566528,456.654266 541.202759,457.667419 540.615784,457.819550 
	C531.679443,460.136353 522.721008,462.370026 513.743164,464.520813 
	C512.935669,464.714233 511.959076,464.201752 510.879822,463.654205 
	C518.233154,453.147003 525.767761,443.002716 533.600403,432.664032 
	C532.904724,434.877441 531.836365,437.258026 530.944641,439.703033 
	C530.395447,441.208801 529.256836,443.563354 529.856384,444.249756 
	C533.441406,448.353912 537.454834,452.083893 541.679321,455.990479 
z"/>
<path fill="#7833AD" opacity="1.000000" stroke="none" 
	d="
M498.384247,488.912170 
	C495.407532,482.351898 492.464813,483.485748 485.019684,486.027313 
	C479.744537,487.828125 474.576996,489.950745 469.274292,491.659424 
	C468.074371,492.046021 466.513306,491.312012 464.908630,490.725891 
	C474.543640,486.600311 484.388489,482.842651 494.621063,479.071411 
	C494.852692,481.582336 495.817627,482.185364 498.289948,481.428436 
	C506.574554,478.892090 514.917114,476.544891 523.653931,474.424683 
	C525.047363,476.473816 526.024414,478.223541 527.001404,479.973267 
	C517.590332,482.941925 508.179230,485.910583 498.384247,488.912170 
z"/>
<path fill="#0C3C6D" opacity="1.000000" stroke="none" 
	d="
M642.360840,426.265778 
	C643.939270,423.414520 645.861450,420.429016 647.892395,417.105194 
	C654.054443,409.240448 660.107727,401.713989 666.793335,394.071594 
	C672.201233,396.324738 675.186829,399.602905 673.232910,405.389771 
	C663.056824,412.303680 652.880676,419.217621 642.360840,426.265778 
z"/>
<path fill="#56289C" opacity="1.000000" stroke="none" 
	d="
M545.987793,398.018311 
	C542.213684,403.274994 538.419739,408.517609 534.679382,413.798248 
	C533.746948,415.114746 532.987427,416.553680 532.094238,418.260925 
	C527.300293,418.662262 522.560486,418.739014 517.360229,418.733521 
	C520.710388,413.160675 524.454224,407.621918 528.357910,402.198242 
	C530.565796,399.130493 533.036377,396.251740 535.991089,393.284943 
	C539.724915,394.860779 542.856323,396.439545 545.987793,398.018311 
z"/>
<path fill="#2355A4" opacity="1.000000" stroke="none" 
	d="
M673.571899,405.285645 
	C675.186829,399.602905 672.201233,396.324738 667.052612,393.867096 
	C667.019775,393.044312 667.360107,392.310028 667.773560,391.279480 
	C673.643005,383.719452 679.439331,376.455750 685.523071,369.026672 
	C687.481201,369.722076 689.152039,370.582855 690.948120,372.084961 
	C691.059082,373.162170 691.044861,373.598083 690.747803,374.223633 
	C688.039795,378.527466 685.281311,382.487152 683.282471,386.798981 
	C681.245850,391.192291 676.875183,395.013855 679.027222,400.724854 
	C678.478394,401.167389 677.929565,401.609955 676.892578,402.085785 
	C676.238708,402.227631 676.118835,402.373901 676.044861,402.557861 
	C675.333496,403.432404 674.622192,404.306946 673.571899,405.285645 
z"/>
<path fill="#3BAED4" opacity="1.000000" stroke="none" 
	d="
M463.547913,525.844238 
	C464.595978,527.571106 465.264496,529.363037 465.652374,531.683960 
	C450.247009,538.114563 435.122284,544.016235 420.003052,549.552917 
	C419.856537,547.702332 419.704529,546.216797 419.552490,544.731201 
	C419.861938,544.501404 420.171387,544.271606 421.101257,544.042786 
	C422.680359,544.077393 423.639069,544.111084 424.597748,544.144775 
	C424.265808,543.685364 423.933899,543.226013 423.601959,542.766602 
	C423.915070,542.528015 424.228180,542.289429 424.951691,541.959717 
	C425.362061,541.868469 425.759735,541.578491 425.759735,541.578491 
	C438.229309,536.355408 450.698853,531.132385 463.547913,525.844238 
z"/>
<path fill="#3F92C8" opacity="1.000000" stroke="none" 
	d="
M419.214081,544.797852 
	C419.704529,546.216797 419.856537,547.702332 419.990082,549.805420 
	C419.966522,550.590942 419.961426,550.758911 419.956299,550.926880 
	C408.292389,557.769470 396.524261,564.442871 385.013092,571.533447 
	C380.021729,574.607971 375.559662,578.541870 370.499969,582.092407 
	C373.777039,577.872559 376.758362,572.725403 381.170441,569.594727 
	C393.420410,560.902527 406.265656,553.049255 419.214081,544.797852 
z"/>
<path fill="#54C8E2" opacity="1.000000" stroke="none" 
	d="
M744.829956,423.531342 
	C744.870728,430.050934 742.751770,433.128754 737.788147,434.252716 
	C733.553101,435.211639 729.100159,432.938690 727.141907,428.818390 
	C725.273010,424.886414 726.372620,420.642822 730.014954,417.730743 
	C734.915894,413.812225 741.388916,416.187531 744.829956,423.531342 
z"/>
<path fill="#2355A4" opacity="1.000000" stroke="none" 
	d="
M333.381531,644.383179 
	C331.299622,639.830688 331.236877,635.305969 335.327118,632.963257 
	C338.039581,631.409668 342.325684,631.242065 345.441559,632.115601 
	C348.955750,633.100769 351.044403,636.939819 349.823059,640.569519 
	C348.883667,643.361328 346.620056,646.468689 344.087372,647.785156 
	C340.285065,649.761536 336.297485,648.473938 333.381531,644.383179 
z"/>
<path fill="#3F92C8" opacity="1.000000" stroke="none" 
	d="
M573.990723,328.843048 
	C563.025269,328.902924 552.056335,329.115662 541.098206,328.859924 
	C539.430237,328.820984 537.812988,326.610626 536.172241,325.404602 
	C537.822510,324.140167 539.441101,321.833191 541.128296,321.781952 
	C551.422180,321.469391 561.731628,321.669098 572.526001,322.155975 
	C573.341003,324.690338 573.665894,326.766693 573.990723,328.843048 
z"/>
<path fill="#3F92C8" opacity="1.000000" stroke="none" 
	d="
M646.964478,590.865417 
	C656.982483,590.643555 667.000488,590.421692 677.500549,590.654175 
	C678.307861,593.284607 678.633118,595.460571 678.958374,597.636597 
	C668.595215,597.721802 658.231995,597.807068 647.410645,597.359863 
	C646.956482,594.840088 646.960510,592.852783 646.964478,590.865417 
z"/>
<path fill="#49BCDB" opacity="1.000000" stroke="none" 
	d="
M709.493042,582.981812 
	C701.401611,582.999695 693.754395,583.026062 686.107117,583.017517 
	C683.713928,583.014832 680.740051,582.921082 681.322388,579.685791 
	C681.604614,578.117737 684.182739,575.903259 685.817261,575.818054 
	C693.766418,575.403503 701.757019,575.409485 709.710449,575.766724 
	C711.297363,575.838013 712.786316,578.091187 714.320496,579.338257 
	C712.859375,580.551086 711.398315,581.763977 709.493042,582.981812 
z"/>
<path fill="#3BAED4" opacity="1.000000" stroke="none" 
	d="
M659.650391,521.583191 
	C657.205688,525.784729 653.455627,527.112488 649.693176,525.646301 
	C647.354126,524.734802 644.478638,521.810669 644.303528,519.595398 
	C644.085876,516.842957 645.671021,512.672913 647.837402,511.361664 
	C650.054504,510.019684 654.330383,510.529846 656.956726,511.789551 
	C660.565186,513.520386 661.375488,517.319641 659.650391,521.583191 
z"/>
<path fill="#207CBF" opacity="1.000000" stroke="none" 
	d="
M679.331238,400.626709 
	C676.875183,395.013855 681.245850,391.192291 683.282471,386.798981 
	C685.281311,382.487152 688.039795,378.527466 690.888672,374.537140 
	C693.155823,378.903137 696.163147,381.363312 701.015381,380.999054 
	C693.888672,387.508911 686.761963,394.018738 679.331238,400.626709 
z"/>
<path fill="#2F248E" opacity="1.000000" stroke="none" 
	d="
M275.502930,710.108887 
	C282.638092,709.853149 289.425720,709.563049 296.189484,709.845276 
	C297.518524,709.900757 298.755249,712.167480 300.034576,713.414368 
	C298.742950,714.626709 297.510132,716.803406 296.149628,716.886353 
	C289.874207,717.268982 283.556641,717.244385 277.267395,717.010437 
	C273.549011,716.872070 272.860931,714.328918 275.502930,710.108887 
z"/>
<path fill="#3BAED4" opacity="1.000000" stroke="none" 
	d="
M662.949463,575.968872 
	C665.933838,575.982361 668.560242,575.532715 670.885315,576.174438 
	C672.393127,576.590576 673.461243,578.599915 674.726440,579.895386 
	C673.513855,581.011536 672.341614,583.035889 671.081848,583.091858 
	C664.441345,583.386841 657.769592,583.355103 651.132874,582.992432 
	C649.997681,582.930359 648.041687,580.622986 648.153870,579.525757 
	C648.283691,578.256836 650.172485,576.351868 651.490295,576.177063 
	C655.093933,575.699097 658.798828,575.985168 662.949463,575.968872 
z"/>
<path fill="#78E8EF" opacity="1.000000" stroke="none" 
	d="
M700.487000,424.123352 
	C702.281738,417.970734 696.824341,419.385284 693.563538,418.147888 
	C695.742310,413.900482 698.739441,409.885315 700.718262,405.419006 
	C703.183899,399.853851 704.809631,393.916565 707.116516,387.214661 
	C709.107239,400.744385 705.858826,412.496857 700.487000,424.123352 
z"/>
<path fill="#239ACF" opacity="1.000000" stroke="none" 
	d="
M701.684326,356.207703 
	C706.169128,358.853210 710.389038,361.703339 714.840454,364.831848 
	C713.017029,367.674652 710.962158,370.239136 708.232544,372.930359 
	C705.881714,373.033600 703.956299,373.532013 702.582458,372.875732 
	C699.893188,371.591064 697.511658,369.662323 695.002747,368.000214 
	C697.141663,364.137604 699.280579,360.274994 701.684326,356.207703 
z"/>
<path fill="#49BCDB" opacity="1.000000" stroke="none" 
	d="
M574.450928,328.940125 
	C573.665894,326.766693 573.341003,324.690338 572.989868,322.211060 
	C579.571167,321.701477 586.187988,321.383453 592.778320,321.671448 
	C594.054321,321.727203 595.226868,324.149811 596.447144,325.480591 
	C595.080994,326.649170 593.778137,328.726410 592.337708,328.826721 
	C586.552002,329.229492 580.723755,329.020233 574.450928,328.940125 
z"/>
<path fill="#56289C" opacity="1.000000" stroke="none" 
	d="
M440.748993,502.326355 
	C443.007263,503.557373 444.937622,504.882751 446.925598,506.543488 
	C437.239288,512.091858 427.495361,517.304810 417.751465,522.517822 
	C417.352509,521.906006 416.953552,521.294128 416.554596,520.682312 
	C424.510071,514.595093 432.465576,508.507904 440.748993,502.326355 
z"/>
<path fill="#653BA2" opacity="1.000000" stroke="none" 
	d="
M410.998413,515.931335 
	C407.796875,515.897644 404.403687,516.526550 402.131439,515.214417 
	C398.940002,513.371460 399.099274,508.333893 401.572174,505.571014 
	C404.066925,502.783752 408.435760,502.535950 411.390289,505.014099 
	C414.790833,507.866302 414.762299,511.540649 410.998413,515.931335 
z"/>
<path fill="#207CBF" opacity="1.000000" stroke="none" 
	d="
M646.503052,590.791626 
	C646.960510,592.852783 646.956482,594.840088 646.951294,597.247681 
	C640.794373,597.790649 634.626404,598.161255 628.491394,597.860168 
	C626.975098,597.785767 625.565857,595.529602 624.107361,594.276367 
	C625.589600,593.087708 627.007629,590.983215 628.565674,590.873840 
	C634.366028,590.466980 640.212463,590.715454 646.503052,590.791626 
z"/>
<path fill="#3F92C8" opacity="1.000000" stroke="none" 
	d="
M694.739380,368.193542 
	C697.511658,369.662323 699.893188,371.591064 702.582458,372.875732 
	C703.956299,373.532013 705.881714,373.033600 707.948242,373.096741 
	C706.094849,375.656433 703.851013,378.176544 701.311279,380.847839 
	C696.163147,381.363312 693.155823,378.903137 691.171509,374.347534 
	C691.044861,373.598083 691.059082,373.162170 691.123047,372.403931 
	C692.273804,370.850037 693.374878,369.618469 694.739380,368.193542 
z"/>
<path fill="#7833AD" opacity="1.000000" stroke="none" 
	d="
M337.773346,435.146240 
	C334.949463,435.298340 332.381195,435.777283 330.065674,435.215179 
	C328.750977,434.896027 326.787354,432.618866 327.012207,431.675537 
	C327.348602,430.264191 329.175629,428.768311 330.700623,428.201263 
	C332.292419,427.609406 334.354248,427.759644 336.066833,428.176392 
	C337.490662,428.522827 339.552063,429.532898 339.795868,430.599823 
	C340.089630,431.885254 338.761078,433.541473 337.773346,435.146240 
z"/>
<path fill="#49BCDB" opacity="1.000000" stroke="none" 
	d="
M679.404663,597.742310 
	C678.633118,595.460571 678.307861,593.284607 677.956787,590.739990 
	C681.050903,590.307007 684.232910,589.857117 687.264221,590.344482 
	C688.733765,590.580811 689.920776,592.574097 691.235718,593.771912 
	C689.910034,595.127808 688.796082,597.197998 687.207947,597.668823 
	C684.937500,598.342041 682.320129,597.845154 679.404663,597.742310 
z"/>
<path fill="#54C8E2" opacity="1.000000" stroke="none" 
	d="
M551.343506,686.423828 
	C552.829651,685.183289 554.608032,683.397705 556.510193,683.254333 
	C562.108398,682.832520 567.760864,682.929443 573.379578,683.146423 
	C574.524719,683.190613 575.615479,684.644531 576.881836,685.817139 
	C568.585693,686.333618 560.138977,686.481445 551.343506,686.423828 
z"/>
<path fill="#3F92C8" opacity="1.000000" stroke="none" 
	d="
M678.814148,487.879669 
	C682.851257,484.911102 686.888428,481.942505 691.573242,479.056671 
	C692.851624,480.487518 693.482361,481.835632 694.113037,483.183777 
	C689.945618,486.019836 685.778198,488.855927 681.276855,491.343536 
	C680.233337,489.956573 679.523743,488.918121 678.814148,487.879669 
z"/>
<path fill="#54C8E2" opacity="1.000000" stroke="none" 
	d="
M735.234375,583.549011 
	C732.098450,583.263000 728.854431,582.796021 729.746643,579.248474 
	C730.116089,577.779419 733.329407,576.913269 735.360840,576.028931 
	C736.193359,575.666565 737.528992,575.625366 738.271057,576.060303 
	C739.919312,577.026367 741.337341,578.385254 742.849182,579.584045 
	C741.430298,580.836060 740.112732,582.242310 738.547241,583.271423 
	C737.823730,583.747009 736.616150,583.486450 735.234375,583.549011 
z"/>
<path fill="#3F92C8" opacity="1.000000" stroke="none" 
	d="
M514.571716,328.734619 
	C512.850525,328.699738 511.301025,329.022217 510.254028,328.440430 
	C508.857666,327.664398 506.746948,325.966034 506.927368,325.058228 
	C507.226562,323.552856 508.942688,322.120941 510.386841,321.133209 
	C511.189545,320.584259 512.830688,320.613739 513.774780,321.059082 
	C515.534668,321.889282 517.061462,323.213440 518.685303,324.332031 
	C517.445862,325.784454 516.206482,327.236908 514.571716,328.734619 
z"/>
<path fill="#2355A4" opacity="1.000000" stroke="none" 
	d="
M678.507690,488.043793 
	C679.523743,488.918121 680.233337,489.956573 680.927734,491.365173 
	C673.626465,494.629028 666.340454,497.522797 659.054382,500.416565 
	C658.912781,500.091248 658.771240,499.765930 658.629639,499.440582 
	C665.153503,495.696381 671.677307,491.952148 678.507690,488.043793 
z"/>
<path fill="#3BAED4" opacity="1.000000" stroke="none" 
	d="
M694.450562,483.099762 
	C693.482361,481.835632 692.851624,480.487518 691.887695,478.947601 
	C694.812561,475.926208 698.070557,473.096588 701.958008,470.170349 
	C703.724976,470.714020 704.862488,471.354340 705.999939,471.994690 
	C702.262634,475.668365 698.525391,479.342072 694.450562,483.099762 
z"/>
<path fill="#54C8E2" opacity="1.000000" stroke="none" 
	d="
M706.315430,471.871307 
	C704.862488,471.354340 703.724976,470.714020 702.252808,470.015625 
	C705.945251,465.666016 709.972473,461.374481 713.999634,457.082947 
	C713.886536,463.403503 711.305786,468.154602 706.315430,471.871307 
z"/>
<path fill="#9331BE" opacity="1.000000" stroke="none" 
	d="
M658.170410,440.471924 
	C654.588684,441.560577 651.926453,440.609863 651.749329,437.142609 
	C651.672974,435.647736 653.814758,432.875610 655.122314,432.766754 
	C656.781189,432.628662 659.041382,434.291718 660.182800,435.819977 
	C660.695862,436.506927 659.124939,438.750183 658.170410,440.471924 
z"/>
<path fill="#3BAED4" opacity="1.000000" stroke="none" 
	d="
M563.215332,312.556183 
	C562.884583,313.161987 562.698547,313.636047 562.479065,313.652100 
	C560.040100,313.830200 557.554810,314.209015 555.185364,313.850677 
	C554.667542,313.772400 553.799927,310.392700 554.432068,309.597260 
	C555.463989,308.298706 557.574341,307.275024 559.269348,307.212830 
	C562.319214,307.100922 563.565674,309.244232 563.215332,312.556183 
z"/>
<path fill="#653BA2" opacity="1.000000" stroke="none" 
	d="
M386.907715,532.510315 
	C388.867065,531.421631 390.739502,530.184448 392.625122,530.164001 
	C393.312195,530.156555 394.843689,533.257385 394.506561,534.554749 
	C394.168488,535.855713 391.226715,537.818420 390.741333,537.498169 
	C389.118866,536.427429 388.085205,534.464539 386.907715,532.510315 
z"/>
<path fill="#7833AD" opacity="1.000000" stroke="none" 
	d="
M412.358978,443.885559 
	C411.641571,445.989838 411.093872,448.257690 409.653687,449.372864 
	C409.007355,449.873322 406.138336,448.423828 405.117401,447.173645 
	C404.507721,446.427094 405.034393,443.882446 405.909363,442.968445 
	C407.947937,440.838898 410.284912,441.200226 412.358978,443.885559 
z"/>
<path fill="#2F248E" opacity="1.000000" stroke="none" 
	d="
M387.141113,710.771362 
	C387.078308,712.930786 387.276215,715.137451 386.319275,716.575684 
	C385.887787,717.224182 382.794312,716.843201 381.590027,715.979370 
	C380.764191,715.386963 380.590393,712.059875 381.028748,711.850952 
	C382.806122,711.003723 384.933014,710.889771 387.141113,710.771362 
z"/>
<path fill="#207CBF" opacity="1.000000" stroke="none" 
	d="
M335.252136,579.876526 
	C338.127808,582.673279 338.421753,585.260986 334.744781,586.971130 
	C333.765564,587.426636 331.677826,586.822327 330.881042,585.971924 
	C330.093475,585.131409 329.633545,582.720032 330.200470,582.138062 
	C331.370361,580.937134 333.319244,580.495117 335.252136,579.876526 
z"/>
<path fill="#49BCDB" opacity="1.000000" stroke="none" 
	d="
M709.479126,446.581818 
	C708.533997,444.587341 707.673767,442.710175 707.542175,440.783264 
	C707.515259,440.389038 710.404236,439.157501 711.613586,439.499207 
	C712.788391,439.831146 714.524048,442.458160 714.299438,442.747620 
	C713.103577,444.289124 711.369507,445.413055 709.479126,446.581818 
z"/>
<path fill="#653BA2" opacity="1.000000" stroke="none" 
	d="
M353.500854,686.807495 
	C356.649994,686.450928 360.248657,686.019348 363.848969,686.004944 
	C374.649841,685.961792 385.451355,686.081482 396.591980,686.356812 
	C382.604584,686.691772 368.277863,686.807495 353.500854,686.807495 
z"/>
<path fill="#7833AD" opacity="1.000000" stroke="none" 
	d="
M542.743774,420.155884 
	C542.610291,421.803650 542.677368,423.990967 541.651489,425.358215 
	C540.040039,427.505920 537.691833,429.100800 535.307007,430.963440 
	C537.457031,427.440674 539.955688,423.884216 542.743774,420.155884 
z"/>
<path fill="#54C8E2" opacity="1.000000" stroke="none" 
	d="
M402.450073,686.123291 
	C404.607056,686.188782 406.764038,686.254211 409.157349,686.499634 
	C407.328613,686.768738 405.263489,686.857910 402.768890,686.705200 
	C402.339386,686.463318 402.450073,686.123291 402.450073,686.123291 
z"/>
<path fill="#78E8EF" opacity="1.000000" stroke="none" 
	d="
M697.469971,431.076660 
	C697.608887,429.941528 698.063477,428.651520 698.819824,427.185059 
	C698.676208,428.312958 698.230896,429.617340 697.469971,431.076660 
z"/>
<path fill="#3F92C8" opacity="1.000000" stroke="none" 
	d="
M423.314148,542.805298 
	C423.933899,543.226013 424.265808,543.685364 424.597748,544.144775 
	C423.639069,544.111084 422.680359,544.077393 421.394836,544.015747 
	C421.720795,543.606384 422.373566,543.225159 423.314148,542.805298 
z"/>
<path fill="#7833AD" opacity="1.000000" stroke="none" 
	d="
M499.715210,477.361145 
	C499.089233,477.831421 498.134338,478.385681 496.798859,478.948975 
	C497.407623,478.453705 498.397003,477.949432 499.715210,477.361145 
z"/>
<path fill="#653BA2" opacity="1.000000" stroke="none" 
	d="
M402.090057,686.068237 
	C402.450073,686.123291 402.339386,686.463318 402.363220,686.641418 
	C401.539307,686.820312 400.691498,686.821045 399.448547,686.690063 
	C399.945557,686.376587 400.837799,686.194946 402.090057,686.068237 
z"/>
<path fill="#7833AD" opacity="1.000000" stroke="none" 
	d="
M367.690155,417.171875 
	C367.964600,417.405823 367.998932,417.757080 368.012299,418.373352 
	C367.810883,418.188599 367.630432,417.738892 367.690155,417.171875 
z"/>
<path fill="#7833AD" opacity="1.000000" stroke="none" 
	d="
M602.320618,341.872375 
	C602.049500,341.628052 602.005432,341.225677 601.949097,340.519958 
	C602.114197,340.159302 602.291443,340.101990 602.743530,340.098572 
	C602.861511,340.673096 602.704590,341.193726 602.320618,341.872375 
z"/>
<path fill="#3F92C8" opacity="1.000000" stroke="none" 
	d="
M369.844788,582.267822 
	C369.843048,582.682068 369.574097,583.217346 368.993958,583.814087 
	C368.981079,583.380005 369.279327,582.884460 369.844788,582.267822 
z"/>
<path fill="#78E8EF" opacity="1.000000" stroke="none" 
	d="
M699.453674,426.198334 
	C699.336121,426.015106 699.433228,425.654816 699.776123,425.142334 
	C699.904053,425.333862 699.786194,425.677551 699.453674,426.198334 
z"/>
<path fill="#3F92C8" opacity="1.000000" stroke="none" 
	d="
M425.619537,541.563599 
	C425.759735,541.578491 425.362061,541.868469 425.250854,541.924194 
	C425.174255,541.773926 425.287476,541.630188 425.619537,541.563599 
z"/>
<path fill="#207CBF" opacity="1.000000" stroke="none" 
	d="
M676.168884,402.492554 
	C676.118835,402.373901 676.238708,402.227631 676.534790,402.066284 
	C676.570923,402.178375 676.446899,402.316284 676.168884,402.492554 
z"/>
<path fill="#362697" opacity="1.000000" stroke="none" 
	d="
M489.714600,623.889465 
	C482.202576,634.687012 474.373779,645.338318 466.522552,655.973083 
	C463.892670,659.535461 461.205475,663.055420 457.954773,666.841614 
	C456.921326,667.744080 456.477539,668.399658 456.033752,669.055237 
	C455.854614,669.598206 455.675446,670.141235 455.252991,670.846558 
	C453.981384,671.488525 452.913971,671.899658 451.931549,672.459778 
	C447.929382,674.741577 446.257446,674.239807 445.160736,669.734375 
	C443.844421,664.326843 439.478363,661.935974 435.515533,659.071777 
	C434.768890,658.532104 433.484711,658.328796 433.183167,657.645874 
	C431.005981,652.715454 428.732849,647.793884 427.076050,642.679688 
	C426.072266,639.581177 424.709320,637.428162 421.600372,636.269653 
	C420.145355,635.727539 419.023010,634.346924 417.600616,633.651855 
	C414.344208,632.060364 414.000885,626.939148 408.704620,627.349243 
	C406.043823,627.555237 404.600372,618.298706 407.071777,616.422546 
	C410.987946,613.449585 415.189026,610.853516 419.244385,608.061462 
	C420.829712,606.970093 422.346985,605.779724 423.932983,604.280396 
	C427.714752,601.577881 431.285980,598.875061 435.236084,596.949402 
	C445.815369,591.791992 456.556976,586.967529 467.597534,581.958984 
	C462.767700,588.182373 466.084778,593.578003 467.876068,600.381714 
	C469.926819,608.170837 476.308258,611.608154 479.458374,617.870117 
	C480.911987,620.759705 485.967010,621.837524 489.714600,623.889465 
z"/>
<path fill="#FCFDFD" opacity="1.000000" stroke="none" 
	d="
M388.480896,622.429077 
	C387.522705,612.191528 390.790894,602.952637 396.495880,594.450500 
	C400.255157,588.848022 404.172211,583.351318 408.012207,577.456299 
	C414.865753,573.962830 421.725769,570.820190 429.178833,567.438110 
	C430.208649,567.164734 430.645416,567.130920 431.082153,567.097046 
	C417.299408,585.139709 403.516663,603.182434 389.568970,621.542725 
	C389.106232,621.990051 388.808441,622.119812 388.480896,622.429077 
z"/>
<path fill="#6626A5" opacity="1.000000" stroke="none" 
	d="
M546.292603,397.870392 
	C542.856323,396.439545 539.724915,394.860779 536.287476,393.124817 
	C538.635315,389.260162 541.289062,385.552673 543.995239,381.513397 
	C544.047729,381.181580 544.502197,381.048828 544.735474,381.009979 
	C549.321899,380.975891 553.675110,380.980652 558.486938,380.986816 
	C554.829590,386.566315 550.713501,392.144409 546.292603,397.870392 
z"/>
<path fill="#A033C5" opacity="1.000000" stroke="none" 
	d="
M573.965576,379.174316 
	C577.662720,374.267029 581.317566,369.585083 584.989685,364.916779 
	C585.706055,364.005981 586.489868,363.148285 587.522461,362.098816 
	C589.260986,363.342285 590.661072,364.820435 592.190125,366.150238 
	C595.830078,369.315918 599.648010,372.285370 603.180481,375.564240 
	C608.770264,380.752655 613.967163,386.381561 619.728577,391.363586 
	C627.177795,397.805145 632.513733,406.672180 642.129761,410.683167 
	C644.300110,411.588440 645.984497,413.658600 647.960144,415.511810 
	C641.499268,419.159515 634.981140,422.508453 628.436523,425.804840 
	C626.236023,426.913269 623.968201,427.888062 621.372681,428.968597 
	C616.294128,424.781250 611.539795,420.586548 606.868408,416.301331 
	C604.586731,414.208313 602.571838,411.818115 600.240906,409.786499 
	C593.944336,404.298309 587.441895,399.041870 581.254517,393.435883 
	C579.714783,392.040802 579.024536,389.688324 578.005188,387.743713 
	C576.741821,385.333649 575.542236,382.890076 574.105225,380.164978 
	C573.895386,379.868958 573.929321,379.404358 573.965576,379.174316 
z"/>
<path fill="#6626A5" opacity="1.000000" stroke="none" 
	d="
M550.545776,461.209137 
	C549.893677,459.348633 549.629028,457.433350 549.176270,455.238434 
	C559.548035,451.707947 570.223328,448.785095 580.637756,445.121063 
	C592.970398,440.782166 605.078064,435.804016 617.643005,431.066162 
	C618.511414,431.616425 619.020142,432.203461 619.803101,432.911377 
	C607.058411,439.075012 594.211609,445.533356 580.963318,451.022614 
	C571.225586,455.057220 560.962280,457.823059 550.545776,461.209137 
z"/>
<path fill="#3BAED4" opacity="1.000000" stroke="none" 
	d="
M559.598389,613.997498 
	C564.934937,614.946289 569.908752,615.883179 574.876770,616.850098 
	C576.650452,617.195251 578.413635,617.962402 580.175415,617.943909 
	C595.416199,617.783447 610.099182,629.850037 612.276733,644.367615 
	C612.373108,645.010437 612.693298,645.619690 612.950256,646.628357 
	C604.638062,647.006714 596.284851,647.001221 587.462158,646.994263 
	C579.062134,636.816223 573.098206,624.714539 559.863647,619.741211 
	C558.419312,619.198486 557.479248,617.313965 556.305359,616.051819 
	C557.281372,615.367004 558.257385,614.682251 559.598389,613.997498 
z"/>
<path fill="#239ACF" opacity="1.000000" stroke="none" 
	d="
M470.959717,530.778931 
	C486.212402,525.495972 501.469482,520.225708 516.711487,514.912292 
	C518.398682,514.324158 520.000000,513.489807 521.832336,512.487183 
	C531.431946,509.165436 540.840393,506.126068 550.621643,503.036194 
	C552.842590,506.037292 554.980286,508.954987 556.468201,512.173096 
	C558.505981,516.580261 559.701538,521.221008 557.040894,526.042603 
	C543.823242,530.811768 530.354919,535.492126 516.795044,539.890198 
	C505.178955,543.657898 493.458008,547.102356 481.398560,550.353149 
	C480.868896,549.550354 480.872894,548.898132 480.557220,548.645630 
	C474.809723,544.047913 471.689087,538.061035 470.959717,530.778931 
z"/>
<path fill="#207CBF" opacity="1.000000" stroke="none" 
	d="
M470.600464,530.844543 
	C471.689087,538.061035 474.809723,544.047913 480.557220,548.645630 
	C480.872894,548.898132 480.868896,549.550354 481.034302,550.365845 
	C465.392151,555.777954 449.728485,560.837830 434.069458,565.912048 
	C433.284546,566.166382 432.539520,566.544006 431.429047,566.980591 
	C430.645416,567.130920 430.208649,567.164734 429.441833,567.195190 
	C426.162659,561.983093 423.213593,556.774475 420.110413,551.246338 
	C419.961426,550.758911 419.966522,550.590942 419.984558,550.170410 
	C435.122284,544.016235 450.247009,538.114563 465.705170,532.035278 
	C467.439484,531.541809 468.840332,531.226013 470.600464,530.844543 
z"/>
<path fill="#362697" opacity="1.000000" stroke="none" 
	d="
M496.685272,615.050354 
	C496.576965,615.664673 496.139771,616.316406 495.389282,617.033447 
	C495.502838,616.428406 495.929626,615.758057 496.685272,615.050354 
z"/>
<path fill="#362697" opacity="1.000000" stroke="none" 
	d="
M493.692383,619.051636 
	C493.582642,619.669495 493.142151,620.321106 492.388000,621.037903 
	C492.503448,620.430481 492.932526,619.757996 493.692383,619.051636 
z"/>
<path fill="#A033C5" opacity="1.000000" stroke="none" 
	d="
M589.368164,359.988251 
	C592.440979,355.399841 595.889648,350.812347 599.626465,346.046967 
	C599.123657,352.448029 596.072083,357.398590 589.368164,359.988251 
z"/>
<path fill="#6626A5" opacity="1.000000" stroke="none" 
	d="
M603.961121,464.612183 
	C591.227051,469.855164 578.452271,474.753571 565.680603,479.660309 
	C563.989868,480.309906 562.315491,481.001831 560.311890,481.838501 
	C559.990234,482.002869 559.491394,481.979614 559.242554,481.955627 
	C556.422607,479.145538 553.851501,476.359406 551.261963,473.038910 
	C551.515015,472.287323 551.786560,472.070129 552.058105,471.852905 
	C565.784241,465.919739 579.510376,459.986511 593.588013,453.993774 
	C597.266907,457.379608 600.594116,460.824951 603.961121,464.612183 
z"/>
<path fill="#2F248E" opacity="1.000000" stroke="none" 
	d="
M456.350616,669.000732 
	C456.477539,668.399658 456.921326,667.744080 457.691406,667.051147 
	C457.567596,667.658020 457.117523,668.302124 456.350616,669.000732 
z"/>
<path fill="#9331BE" opacity="1.000000" stroke="none" 
	d="
M552.000366,471.502747 
	C551.786560,472.070129 551.515015,472.287323 551.117676,472.732178 
	C543.263489,475.297638 535.534973,477.635406 527.403931,479.973267 
	C526.024414,478.223541 525.047363,476.473816 524.025757,474.386536 
	C530.917847,471.892090 537.972839,470.045807 544.748657,467.466248 
	C549.078430,465.817902 551.268738,466.540039 552.000366,471.502747 
z"/>
<path fill="#FCFDFD" opacity="1.000000" stroke="none" 
	d="
M486.314697,494.272705 
	C486.369446,493.862915 486.768768,493.673492 487.260315,493.771423 
	C487.121460,494.203522 486.890381,494.348297 486.314697,494.272705 
z"/>
</svg>